<?xml version="1.0" encoding="UTF-8"?>
<svg width="476px" height="403px" viewBox="0 0 476 403" version="1.1" xmlns="http://www.w3.org/2000/svg" xmlns:xlink="http://www.w3.org/1999/xlink">
    <g id="Page-1" stroke="none" stroke-width="1" fill-rule="evenodd">
        <g id="quote" fill="#fff" fill-rule="nonzero">
            <path d="M164.454,0.547 L54.818,0.547 C39.589,0.547 26.647,5.877 15.986,16.534 C5.33,27.193 0,40.135 0,55.365 L0,164.997 C0,180.226 5.327,193.166 15.986,203.823 C26.646,214.479 39.592,219.811 54.818,219.811 L118.771,219.811 C126.382,219.811 132.855,222.477 138.185,227.805 C143.515,233.13 146.179,239.605 146.179,247.222 L146.179,256.353 C146.179,276.53 139.04,293.75 124.766,308.028 C110.491,322.299 93.267,329.437 73.088,329.437 L54.818,329.437 C49.866,329.437 45.585,331.25 41.967,334.864 C38.352,338.478 36.543,342.762 36.543,347.711 L36.543,384.26 C36.543,389.201 38.352,393.493 41.967,397.108 C45.588,400.721 49.865,402.535 54.818,402.535 L73.089,402.535 C92.886,402.535 111.777,398.675 129.765,390.969 C147.752,383.262 163.311,372.838 176.445,359.704 C189.576,346.569 199.998,331.013 207.706,313.025 C215.413,295.038 219.268,276.148 219.268,256.354 L219.268,55.361 C219.268,40.131 213.938,27.19 203.281,16.533 C192.624,5.876 179.679,0.547 164.454,0.547 Z M459.089,16.534 C448.433,5.877 435.49,0.547 420.261,0.547 L310.629,0.547 C295.4,0.547 282.458,5.877 271.801,16.534 C261.145,27.194 255.817,40.135 255.817,55.365 L255.817,164.997 C255.817,180.226 261.145,193.166 271.801,203.823 C282.458,214.479 295.401,219.811 310.629,219.811 L374.582,219.811 C382.193,219.811 388.671,222.477 394,227.805 C399.324,233.133 401.994,239.605 401.994,247.222 L401.994,256.353 C401.994,276.53 394.855,293.75 380.578,308.028 C366.304,322.299 349.084,329.437 328.903,329.437 L310.629,329.437 C305.681,329.437 301.396,331.25 297.782,334.864 C294.165,338.478 292.354,342.762 292.354,347.711 L292.354,384.26 C292.354,389.201 294.165,393.493 297.782,397.108 C301.395,400.721 305.68,402.535 310.629,402.535 L328.903,402.535 C348.697,402.535 367.587,398.675 385.577,390.969 C403.561,383.262 419.118,372.838 432.253,359.704 C445.387,346.569 455.815,331.009 463.518,313.025 C471.224,295.042 475.081,276.148 475.081,256.354 L475.081,55.361 C475.078,40.131 469.753,27.19 459.089,16.534 Z" id="Shape"></path>
        </g>
    </g>
</svg>