<?xml version="1.0" encoding="UTF-8"?>
<svg width="491px" height="308px" viewBox="0 0 491 308" version="1.1" xmlns="http://www.w3.org/2000/svg" xmlns:xlink="http://www.w3.org/1999/xlink">
    <!-- Generator: Sketch 51.3 (57544) - http://www.bohemiancoding.com/sketch -->
    <title>applications</title>
    <desc>Created with Sketch.</desc>
    <defs>
        <linearGradient x1="51.6879014%" y1="-0.00671362501%" x2="48.4452804%" y2="95.3492511%" id="linearGradient-1">
            <stop stop-color="#DCDDDE" offset="0%"></stop>
            <stop stop-color="#A7A9AC" offset="100%"></stop>
        </linearGradient>
        <linearGradient x1="51.7233337%" y1="-0.0110954112%" x2="48.4609119%" y2="94.9130192%" id="linearGradient-2">
            <stop stop-color="#DCDDDE" offset="0%"></stop>
            <stop stop-color="#A7A9AC" offset="100%"></stop>
        </linearGradient>
        <linearGradient x1="51.7400515%" y1="-0.00359980055%" x2="48.4925016%" y2="94.9101853%" id="linearGradient-3">
            <stop stop-color="#DCDDDE" offset="0%"></stop>
            <stop stop-color="#A7A9AC" offset="100%"></stop>
        </linearGradient>
        <linearGradient x1="51.6704836%" y1="0.00326945875%" x2="48.4158723%" y2="94.9204021%" id="linearGradient-4">
            <stop stop-color="#DCDDDE" offset="0%"></stop>
            <stop stop-color="#A7A9AC" offset="100%"></stop>
        </linearGradient>
        <linearGradient x1="51.7660122%" y1="0.0114880911%" x2="48.5211957%" y2="95.2956633%" id="linearGradient-5">
            <stop stop-color="#DCDDDE" offset="0%"></stop>
            <stop stop-color="#A7A9AC" offset="100%"></stop>
        </linearGradient>
        <linearGradient x1="51.6873355%" y1="0.00826523072%" x2="48.4470579%" y2="94.8974462%" id="linearGradient-6">
            <stop stop-color="#DCDDDE" offset="0%"></stop>
            <stop stop-color="#A7A9AC" offset="100%"></stop>
        </linearGradient>
        <linearGradient x1="51.6864197%" y1="0.0026120945%" x2="48.4494685%" y2="94.9038051%" id="linearGradient-7">
            <stop stop-color="#DCDDDE" offset="0%"></stop>
            <stop stop-color="#A7A9AC" offset="100%"></stop>
        </linearGradient>
        <linearGradient x1="51.5931872%" y1="0.00980727344%" x2="48.340282%" y2="94.9272072%" id="linearGradient-8">
            <stop stop-color="#DCDDDE" offset="0%"></stop>
            <stop stop-color="#A7A9AC" offset="100%"></stop>
        </linearGradient>
        <linearGradient x1="51.6805295%" y1="0.00613758673%" x2="48.441496%" y2="94.5334205%" id="linearGradient-9">
            <stop stop-color="#DCDDDE" offset="0%"></stop>
            <stop stop-color="#A7A9AC" offset="100%"></stop>
        </linearGradient>
        <linearGradient x1="78.3770258%" y1="-5.63075168%" x2="42.6911847%" y2="62.9204909%" id="linearGradient-10">
            <stop stop-color="#E0E0E0" offset="0%"></stop>
            <stop stop-color="#E0E0E0" stop-opacity="0" offset="100%"></stop>
        </linearGradient>
    </defs>
    <g id="Page-1" stroke="none" stroke-width="1" fill="none" fill-rule="evenodd">
        <g id="applications" transform="translate(-110.000000, 0.000000)" fill-rule="nonzero">
            <path d="M562.643,109.768 L532.874,46.372 C531.731,43.938 529.246,42.366 526.543,42.366 C525.523281,42.3641483 524.515931,42.5892564 523.594,43.025 L497.193,55.441 C493.712098,57.0821795 492.2159,61.2308322 493.848,64.716 L523.617,128.112 C524.60976,130.204353 526.718074,131.538542 529.034,131.54 C529.906427,131.541499 530.768255,131.348843 531.557,130.976 L559.781,117.703 C562.758409,116.298398 564.038332,112.749765 562.643,109.768 Z" id="Shape" fill="#D3D3D3" opacity="0.7"></path>
            <path d="M560.573,114.228 L532.35,127.5 C529.628,128.779 526.357,127.6 525.079,124.878 L495.31,61.481 C493.798,58.261 495.195,54.389 498.414,52.876 L524.814,40.46 C528.037,38.944 531.912,40.342 533.425,43.565 L563.193,106.961 C564.47,109.68 563.291,112.949 560.573,114.228 Z" id="Shape" fill="#F4F4F4"></path>
            <path d="M530.04,128.521 C527.724357,128.518568 525.61652,127.18468 524.623,125.093 L494.854,61.696 C493.22,58.217 494.72,54.056 498.199,52.422 L524.6,40.006 C525.522211,39.5699256 526.529886,39.3444797 527.55,39.346 C530.253,39.346 532.738,40.919 533.88,43.353 L563.649,106.749 C565.045597,109.730996 563.765418,113.280788 560.787,114.685 L532.563,127.958 C531.773721,128.329172 530.912198,128.521418 530.04,128.521 Z M527.551,40.353 C526.673,40.353 525.824,40.542 525.03,40.916 L498.629,53.331 C495.651022,54.7356124 494.370997,58.2849767 495.767,61.267 L525.535,124.664 C526.361968,126.403703 528.115749,127.512706 530.042,127.514 C530.771,127.514 531.475,127.357 532.137,127.045 L560.362,113.773 C562.837494,112.605355 563.9015,109.654851 562.741,107.176 L532.971,43.78 C531.976727,41.6877313 529.867499,40.3540921 527.551,40.353 Z" id="Shape" fill="#BBBDBF"></path>
            <path d="M559.139,102.761 L524.439,119.079 L498.24,63.283 C498.005846,62.7834191 498.220083,62.1885648 498.719,61.953 L531.61,46.486 C532.109823,46.2513835 532.705209,46.4662596 532.94,46.966 L559.139,102.761 Z" id="Shape" fill="#2C2E3A"></path>
            <path d="M516.711,49.472 L510.525,52.381 C510.466255,52.4068612 510.399642,52.4083254 510.339817,52.3850707 C510.279993,52.3618159 510.231857,52.3157471 510.206,52.257 C510.146653,52.1376853 510.194934,51.9928436 510.314,51.933 L516.501,49.024 C516.623063,48.9708148 516.765161,49.0262242 516.819,49.148 C516.878347,49.2673147 516.830066,49.4121564 516.711,49.472 Z" id="Shape" fill="#343A54"></path>
            <ellipse id="Oval" fill="#343A54" transform="translate(508.550659, 53.062537) rotate(-25.217000) translate(-508.550659, -53.062537) " cx="508.550659" cy="53.0625366" rx="1" ry="1"></ellipse>
            <ellipse id="Oval" fill="#FFFFFF" transform="translate(544.091017, 115.836601) rotate(-25.184000) translate(-544.091017, -115.836601) " cx="544.091017" cy="115.836601" rx="3.143" ry="3.303"></ellipse>
            <path d="M532.942,46.973 L509.836,87.982 L498.242,63.29 C498.242,63.29 497.977,62.302 498.681,61.971 L531.647,46.469 C531.647,46.469 532.528,46.09 532.942,46.973 Z" id="Shape" fill="#F2F2F2" opacity="0.17"></path>
            <g id="Group" transform="translate(403.000000, 119.000000)">
                <path d="M123.243,28.036 L44.496,4.174 C40.796,3.056 36.879,5.151 35.759,8.847 L3.203,116.279 C2.083,119.974 4.176,123.898 7.872,125.018 L86.617,148.886 C90.318,149.998 94.232,147.906 95.354,144.213 L127.915,36.774 C129.036,33.077 126.939,29.156 123.243,28.036 Z" id="Shape" fill="#D3D3D3" opacity="0.7"></path>
                <path d="M93.342,141.191 C92.22,144.883 88.305,146.977 84.605,145.864 L5.859,121.997 C2.163,120.877 0.069,116.953 1.19,113.258 L33.746,5.826 C34.866,2.13 38.784,0.035 42.483,1.153 L121.23,25.015 C124.926,26.135 127.023,30.056 125.903,33.752 L93.342,141.191 Z" id="Shape" fill="#BBBDBF"></path>
                <path d="M92.335,140.881 C91.3807354,144.026479 88.0579953,145.803561 84.912,144.851 L6.165,120.989 C3.02203426,120.031062 1.24653711,116.710838 2.195,113.565 L34.751,6.134 C35.708,2.987 39.039,1.204 42.178,2.161 L120.928,26.022 C124.07216,26.9789144 125.847307,30.3014415 124.895,33.447 L92.335,140.881 Z" id="Shape" fill="#F4F4F4"></path>
                <polygon id="Shape" fill="#2C2E3A" points="35.664 8.95 122.655 35.42 92.238 135.387 5.247 108.918"></polygon>
                <polygon id="Shape" fill="#F2F2F2" opacity="0.17" points="122.656 35.413 16.053 73.405 35.666 8.945"></polygon>
                <circle id="Oval" fill="#FFFFFF" cx="47.03" cy="127.781" r="4.111"></circle>
                <path d="M86.254,20.632 L74.132,16.944 C74.0099705,16.9069659 73.9410368,16.778051 73.978,16.656 L73.997,16.595 C74.0349372,16.473212 74.1637528,16.4045698 74.286,16.441 L86.408,20.129 C86.5301632,20.1664831 86.5990164,20.2956946 86.562,20.418 L86.543,20.478 C86.5055169,20.6001632 86.3763054,20.6690164 86.254,20.632 Z" id="Shape" fill="#343A54"></path>
                <circle id="Oval" fill="#343A54" cx="72.143" cy="16.064" r="1"></circle>
            </g>
            <g id="Group" transform="translate(163.000000, 189.000000)">
                <path d="M80.448,3.413 L72.451,3.351 C72.2991565,3.014609 71.9655415,2.79724033 71.5964801,2.79423284 C71.2274187,2.79122536 70.8903055,3.00312826 70.733,3.337 L65.388,3.296 C65.2386162,2.95825895 64.9053078,2.73928167 64.5360174,2.73626354 C64.166727,2.7332454 63.8298841,2.94674567 63.675,3.282 L58.331,3.241 C58.1796027,2.9045693 57.8459192,2.68732335 57.477,2.685 C57.1085705,2.68303443 56.7722278,2.89427173 56.614,3.227 L51.269,3.186 C51.1172048,2.84935715 50.7842492,2.63102561 50.415,2.626 C50.0468799,2.6264198 49.7119923,2.83903448 49.555,3.172 L44.213,3.131 C44.0608073,2.79447455 43.7263364,2.5776155 43.357,2.576 C42.9883056,2.57210791 42.6511623,2.7834573 42.494,3.117 L37.152,3.076 C37.0008067,2.7404447 36.6680348,2.52367427 36.3,2.521 C35.9300834,2.51541799 35.5912198,2.72710987 35.434,3.062 L30.095,3.021 C29.9438989,2.68417865 29.610153,2.46650125 29.241,2.464 C28.8718314,2.46217986 28.5348213,2.67373648 28.376,3.007 L23.033,2.966 C22.8805077,2.62932023 22.5465861,2.41164704 22.177,2.408 C21.8089761,2.40766743 21.4737244,2.61948733 21.316,2.952 L15.978,2.911 C15.8243804,2.57483316 15.4905767,2.35749077 15.121,2.353 C14.7516731,2.35160891 14.4147239,2.56351688 14.256,2.897 L6.251,2.835 C4.78734204,2.82832719 3.59329137,4.0053966 3.579,5.469 L2.788,107.28 C2.77967569,108.742838 3.95619817,109.9368 5.419,109.95 L79.62,110.529 C81.0830009,110.533532 82.2771852,109.35986 82.298,107.897 L83.087,6.091 C83.103,4.629 81.911,3.428 80.448,3.413 Z" id="Shape" fill="#D3D3D3" opacity="0.7"></path>
                <path d="M80.284,105.883 C80.2648106,107.346322 79.0704388,108.521062 77.607,108.516 L3.405,107.937 C1.9418056,107.9238 0.765122355,106.729227 0.774,105.266 L1.566,3.458 C1.58028995,1.99478838 2.77373141,0.817879059 4.237,0.824 L78.434,1.399 C79.897,1.414 81.089,2.615 81.073,4.077 L80.284,105.883 Z" id="Shape" fill="#414654"></path>
                <path d="M8.75,103.211 C6.64924736,103.186847 4.96117163,101.472877 4.969,99.372 L5.664,9.927 C5.68707042,7.82334519 7.40424257,6.13297594 9.508,6.143 L73.091,6.637 C75.186,6.651 76.888,8.384 76.873,10.479 L76.178,99.923 C76.158753,102.026475 74.4425366,103.718551 72.339,103.708 L8.75,103.211 Z" id="Shape" fill="#BCBEC0"></path>
                <path d="M8.756,102.495 C6.65296826,102.470294 4.96396275,100.753153 4.974,98.65 L5.671,9.21 C5.691885,7.10627479 7.40819237,5.41454354 9.512,5.424 L73.094,5.92 C75.1962489,5.94360771 76.8858235,7.65863308 76.878,9.761 L76.183,99.205 C76.1626591,101.308244 74.4463158,102.999557 72.343,102.989 L8.756,102.495 Z" id="Shape" fill="#D1D3D4"></path>
                <path d="M5.672,8.49 L5.66,10.075 C5.672,7.975 7.403,6.28 9.5,6.293 L73.086,6.789 C75.188229,6.81043115 76.8784603,8.52568308 76.869,10.628 L76.877,9.046 C76.8892365,6.94438515 75.2015177,5.2276217 73.1,5.204 L9.512,4.714 C7.41177147,4.7034111 5.69670806,6.38989012 5.672,8.49 Z" id="Shape" fill="#F1F2F2"></path>
                <path d="M8.764,101.778 C6.66161043,101.756023 4.97153578,100.040483 4.981,97.938 L5.679,8.491 C5.69879686,6.38848245 7.41643874,4.69857332 9.519,4.713 L73.102,5.203 C75.199,5.221 76.903,6.95 76.883,9.045 L76.189,98.492 C76.1659333,100.593767 74.4508744,102.282921 72.349,102.274 L8.764,101.778 Z" id="Shape" fill="#FFFFFF"></path>
                <path d="M69.531,7.62 C68.8557602,7.61277769 68.3022368,8.15377179 68.294,8.829 C68.291,9.505 68.834,10.059 69.513,10.066 C69.8367256,10.0678615 70.1478742,9.94077091 70.3777228,9.71279867 C70.6075713,9.48482643 70.737208,9.17472994 70.738,8.851 C70.7428089,8.5272227 70.6179612,8.21496314 70.3912558,7.98374995 C70.1645505,7.75253677 69.8548092,7.621566 69.531,7.62 Z" id="Shape" fill="#808285"></path>
                <path d="M69.583,0.781 C69.3310542,0.777530952 69.0880926,0.874505184 68.9077784,1.0505038 C68.7274643,1.22650241 68.624634,1.46704412 68.622,1.719 L68.569,8.519 C68.588305,9.02875287 69.0052049,9.43312407 69.5153094,9.4368709 C70.025414,9.44061774 70.448209,9.04241428 70.475,8.533 L70.529,1.736 C70.5303292,1.48387083 70.4313761,1.24155477 70.2539374,1.06242799 C70.0764987,0.883301216 69.8351304,0.782058107 69.583,0.781 Z" id="Shape" fill="url(#linearGradient-1)"></path>
                <path d="M62.47,7.565 C62.0330642,7.56124869 61.6273175,7.79088484 61.4056009,8.16740672 C61.1838843,8.5439286 61.1798817,9.01013358 61.3951009,9.39040675 C61.6103201,9.77067992 62.0120642,10.0072487 62.449,10.011 C63.125497,10.0154379 63.6779497,9.47148448 63.684,8.795 C63.6877375,8.47042433 63.5615504,8.15782656 63.333533,7.92680402 C63.1055156,7.69578149 62.7945968,7.56551236 62.47,7.565 Z" id="Shape" fill="#808285"></path>
                <path d="M62.522,0.727 C62.2702549,0.723797417 62.0276606,0.821289349 61.8481396,0.997805802 C61.6686186,1.17432226 61.5670464,1.41523672 61.566,1.667 L61.514,8.466 C61.5113311,8.7173888 61.6092603,8.95941457 61.785993,9.13821329 C61.9627258,9.31701201 62.2035972,9.41774729 62.455,9.418 C62.7067451,9.42120258 62.9493394,9.32371065 63.1288604,9.1471942 C63.3083814,8.97067774 63.4099536,8.72976328 63.411,8.478 L63.461,1.681 C63.4650201,1.42937299 63.3678676,1.18666299 63.1913334,1.00730868 C63.0147991,0.827954377 62.7736591,0.726967888 62.522,0.727 Z" id="Shape" fill="url(#linearGradient-2)"></path>
                <path d="M55.409,7.511 C55.0843992,7.50726799 54.7716955,7.63305637 54.5400977,7.86052521 C54.3084999,8.08799406 54.1771072,8.39838456 54.175,8.723 C54.1744021,9.39854149 54.7175082,9.948782 55.393,9.957 C55.716911,9.95939485 56.0284778,9.83287755 56.2590195,9.6053372 C56.4895613,9.37779685 56.6201503,9.0679146 56.622,8.744 C56.6254643,8.41939919 56.4994204,8.106802 56.2717644,7.87539236 C56.0441084,7.64398273 55.7336141,7.51284408 55.409,7.511 Z" id="Shape" fill="#808285"></path>
                <path d="M55.463,0.673 C55.2112413,0.669531184 54.9684865,0.766568106 54.7884895,0.942623588 C54.6084925,1.11867907 54.5061053,1.35922624 54.504,1.611 L54.449,8.411 C54.4511773,8.93580672 54.8752027,9.36116978 55.4,9.365 C55.921577,9.36723769 56.3474164,8.94854028 56.354,8.427 L56.405,1.626 C56.4084846,1.37410458 56.3107143,1.13135174 56.1336173,0.952186738 C55.9565204,0.773021733 55.7149189,0.6724399 55.463,0.673 Z" id="Shape" fill="url(#linearGradient-3)"></path>
                <g transform="translate(47.000000, 0.000000)" id="Shape">
                    <path d="M1.351,7.455 C1.02597577,7.45046164 0.712600559,7.57592434 0.480509046,7.80350923 C0.248417534,8.03109411 0.116834922,8.34194926 0.115,8.667 C0.109451028,9.34333627 0.652673142,9.89640261 1.329,9.903 C2.00626977,9.90687819 2.55859525,9.36126655 2.563,8.684 C2.56619735,8.36002227 2.44007734,8.04814285 2.21258037,7.81745491 C1.9850834,7.58676698 1.67499084,7.45631534 1.351,7.455 Z" fill="#808285"></path>
                    <path d="M1.402,0.614 C1.15066585,0.612137145 0.908900429,0.710264371 0.729960452,0.886765963 C0.551020475,1.06326755 0.449585542,1.30366394 0.448,1.555 L0.395,8.355 C0.39111617,8.87834967 0.811659314,9.306051 1.335,9.311 C1.58722354,9.31313068 1.82996213,9.21497406 2.00981147,9.03812534 C2.18966081,8.86127662 2.29188717,8.62022369 2.294,8.368 L2.348,1.571 C2.34912218,1.04628353 1.92669438,0.618943783 1.402,0.614 Z" fill="url(#linearGradient-4)"></path>
                </g>
                <g transform="translate(40.000000, 0.000000)" id="Shape">
                    <path d="M1.287,7.398 C0.614219765,7.39740194 0.066217737,7.93826969 0.058,8.611 C0.0557364678,9.28655598 0.597512168,9.83814161 1.273,9.848 C1.59761383,9.85039471 1.90984049,9.72352971 2.14078612,9.4953982 C2.37173175,9.26726669 2.50241494,8.95661879 2.504,8.632 C2.50692912,8.3067759 2.38019528,7.99377977 2.15181839,7.76221273 C1.92344151,7.5306457 1.61223344,7.39958241 1.287,7.398 Z" fill="#808285"></path>
                    <path d="M1.343,0.564 C1.09175606,0.560530349 0.849453608,0.657157097 0.669543412,0.832564848 C0.489633217,1.0079726 0.386897763,1.24774881 0.384,1.499 L0.332,8.3 C0.350679359,8.80984376 0.767184404,9.2147551 1.27735225,9.21903773 C1.7875201,9.22332035 2.21076406,8.82545832 2.238,8.316 L2.289,1.516 C2.29086697,1.26398635 2.19199208,1.02166715 2.01435087,0.842899242 C1.83670965,0.664131337 1.59502042,0.563726396 1.343,0.564 Z" fill="url(#linearGradient-5)"></path>
                </g>
                <g transform="translate(33.000000, 0.000000)" id="Shape">
                    <path d="M1.234,7.346 C0.739414596,7.34115371 0.290681469,7.63492553 0.0972989883,8.09016329 C-0.0960834929,8.54540106 0.00402559331,9.07231801 0.35088869,9.42491438 C0.697751786,9.77751075 1.22295691,9.88624379 1.6813035,9.7003497 C2.1396501,9.51445562 2.44073823,9.07059839 2.444,8.576 C2.4480025,8.25203587 2.32244971,7.93989084 2.09524045,7.70892606 C1.86803119,7.47796128 1.55798621,7.34730856 1.234,7.346 Z" fill="#808285"></path>
                    <path d="M1.287,0.51 C1.03439721,0.504910019 0.790295894,0.601291002 0.609308675,0.777579695 C0.428321455,0.953868389 0.325554575,1.19535072 0.324,1.448 L0.27,8.245 C0.269985934,8.77081486 0.694199206,9.19815391 1.22,9.202 C1.47166584,9.20466548 1.71399818,9.10683035 1.89327199,8.93018464 C2.07254579,8.75353894 2.1739488,8.51267776 2.175,8.261 L2.23,1.46 C2.23166028,0.937374307 1.80962368,0.512204874 1.287,0.51 Z" fill="url(#linearGradient-6)"></path>
                </g>
                <g transform="translate(25.000000, 0.000000)" id="Shape">
                    <path d="M2.175,7.292 C1.85039917,7.28826799 1.53769552,7.41405637 1.3060977,7.64152521 C1.07449988,7.86899406 0.943107217,8.17938456 0.941,8.504 C0.936559476,9.17955804 1.47945958,9.73140214 2.155,9.738 C2.83127336,9.74188722 3.38340253,9.19825235 3.39,8.522 C3.39,7.847 2.853,7.296 2.175,7.292 Z" fill="#808285"></path>
                    <path d="M2.227,0.453 C1.7027552,0.447436656 1.2726804,0.866781941 1.265,1.391 L1.21,8.19 C1.20999538,8.7153215 1.63468312,9.14179739 2.16,9.144 C2.41194576,9.14746905 2.65490744,9.05049482 2.83522158,8.8744962 C3.01553572,8.69849759 3.11836597,8.45795588 3.121,8.206 L3.172,1.406 C3.17359626,1.15414826 3.07480307,0.912034896 2.89746564,0.733196196 C2.7201282,0.554357495 2.47885624,0.453526846 2.227,0.453 Z" fill="url(#linearGradient-7)"></path>
                </g>
                <g transform="translate(18.000000, 0.000000)" id="Shape">
                    <path d="M2.11,7.235 C1.78568956,7.23126244 1.47334613,7.35734425 1.24251112,7.58517409 C1.01167611,7.81300392 0.881512343,8.12366842 0.881,8.448 C0.877265177,8.77249506 1.00328438,9.08504257 1.23105603,9.31619418 C1.45882769,9.54734578 1.76948513,9.67795488 2.094,9.679 C2.75009589,9.65710305 3.27188182,9.12113405 3.27617935,8.46468694 C3.28047687,7.80823982 2.76575296,7.26548516 2.11,7.235 Z" fill="#808285"></path>
                    <path d="M2.163,0.397 C1.63948154,0.392556386 1.21104315,0.812497558 1.205,1.336 L1.157,8.134 C1.15433383,8.3859598 1.25187472,8.62865765 1.42816191,8.80869563 C1.6044491,8.98873361 1.84503991,9.09136175 2.097,9.094 C2.62149314,9.09457732 3.04851398,8.67246477 3.054,8.148 L3.111,1.35 C3.11100722,0.825619088 2.68737369,0.399751211 2.163,0.397 Z" fill="url(#linearGradient-8)"></path>
                </g>
                <g transform="translate(11.000000, 0.000000)" id="Shape">
                    <path d="M2.055,7.179 C1.73084959,7.17580192 1.41881835,7.30205872 1.18810134,7.52977209 C0.957384331,7.75748546 0.827049684,8.06783551 0.826,8.392 C0.820477214,9.06578735 1.36221265,9.61647704 2.036,9.62199989 C2.70978735,9.62752274 3.26047709,9.08578735 3.266,8.412 C3.27027033,8.08750585 3.14476254,7.77474579 2.91736549,7.54321767 C2.68996845,7.31168955 2.37951844,7.18057185 2.055,7.179 Z" fill="#808285"></path>
                    <path d="M2.106,0.342 C1.85422685,0.339067198 1.6116298,0.436415754 1.43172109,0.612572449 C1.25181239,0.788729145 1.14937333,1.02922095 1.147,1.281 L1.094,8.081 C1.0806148,8.42877615 1.25767954,8.75624507 1.55601796,8.93547007 C1.85435638,9.11469508 2.22662157,9.11723281 2.52737569,8.94209181 C2.82812982,8.76695081 3.0096426,8.44192631 3.001,8.094 L3.055,1.296 C3.05500721,0.77106681 2.63092598,0.344751222 2.106,0.342 Z" fill="url(#linearGradient-9)"></path>
                </g>
            </g>
            <g id="Group" transform="translate(518.000000, 138.000000)">
                <path d="M81.629,4.608 L79.466,4.358 L79.56,3.6 L72.716,2.747 L72.525,4.287 C50.379,3.252 36.712,16.319 32.881,20.566 L32.855,20.587 C32.255,21.098 31.687,21.628 31.137,22.17 C30.5643482,22.5880428 30.0057083,23.0249493 29.462,23.48 C18.16,33.117 15.56,48.691 23.666,58.197 C25.696,60.579 28.21,62.356 31.014,63.532 C38.657,68.002 49.241,67.319 58.036,61.542 C54.557,65.321 50.092,68.936 44.372,71.857 L42.831,68.421 L32.534,73.043 L30.679,68.767 L8.67,78.318 L9.4,80.003 L5.626,81.642 L6.325,83.251 L3.103,84.649 L1.051,85.539 L0.747,85.671 C0.394064716,85.825044 0.232197243,86.2355256 0.385,86.589 L0.648,87.195 C0.802048183,87.548493 1.21325573,87.7104703 1.567,87.557 L1.87,87.426 L4.341,86.354 L7.144,85.138 L9.938,91.576 L4.362,93.996 C4.00863626,94.1496303 3.84660179,94.5605354 4,94.914 L4.263,95.52 C4.41707838,95.8734525 4.82797293,96.0357537 5.182,95.883 L5.485,95.751 L7.956,94.679 L10.759,93.463 L11.457,95.072 L15.231,93.434 L16.002,95.21 L38.011,85.659 L35.946,80.9 L46.341,76.234 L45.201,73.695 C55.559,68.429 61.985,60.966 65.933,54.212 C68.879,50.331 70.743,45.966 71.443,41.612 C73.936,34.076 72.958,26.1 68.052,20.347 C62.016,13.268 51.72,11.529 42.188,15.076 C48.75,10.468 58.888,5.704 72.276,6.289 L72.105,7.664 L78.949,8.516 L79.027,7.891 L81.222,8.144 C81.858991,8.21555473 82.434294,7.75951099 82.51,7.123 L82.652,5.893 C82.7211672,5.25658138 82.2647287,4.68324465 81.629,4.608 Z M27.581,58.1 C25.427,55.574 24.119,52.565 23.6,49.352 C24.3864551,51.5281148 25.5581302,53.5449272 27.059,55.306 C31.994,61.093 39.777,63.296 47.662,61.977 C42.235,63.727 36.645,63.669 31.953,61.747 C30.328,60.782 28.844,59.581 27.581,58.1 Z M58.862,57.961 C59.4533743,57.4543675 60.0260877,56.9263504 60.579,56.378 C61.144,55.957 61.709,55.533 62.255,55.068 C62.8035214,54.5969208 63.3361518,54.1076479 63.852,53.601 C62.6780306,55.0665649 61.3678426,56.4176021 59.939,57.636 C57.2791938,59.9105555 54.2311126,61.6869656 50.941,62.88 C53.8124955,61.6457293 56.4825502,59.9876054 58.862,57.961 Z M69.689,39.413 C69.472,40.402 69.129,41.764 68.601,43.398 C68.411,43.824 68.209,44.248 67.995,44.669 C69.43,40.417 69.758,36.023 68.898,31.96 C69.627,34.321 69.886,36.846 69.689,39.413 Z M63.126,24.551 C70.096,32.725 68.259,45.918 59.241,54.872 C48.962,62.436 35.583,62.199 28.591,53.999 C24.994,49.781 23.748,44.227 24.617,38.607 C26.147,34.092 29.027,29.738 33.151,26.221 C40.976,19.549 51.073,17.756 58.755,20.905 C60.379,21.868 61.862,23.07 63.126,24.551 Z M31.845,24.689 C31.289,25.163 30.761,25.655 30.247,26.156 C30.942671,25.2889245 31.68651,24.4616208 32.475,23.678 C32.765,23.464 33.059,23.265 33.354,23.064 L33.382,23.085 L33.445,23.005 C35.4095159,21.6690126 37.5324521,20.5823515 39.765,19.77 C36.8944563,21.0055095 34.2249089,22.6635277 31.845,24.689 Z M23.721,33.882 C23.2489912,35.2696085 22.8937553,36.6942313 22.659,38.141 C21.269,42.342 20.961,46.678 21.809,50.691 C20.19,45.447 20.907,39.397 23.721,33.882 Z M66.519,21.658 C68.673,24.184 69.981,27.193 70.5,30.406 C69.7131689,28.2300606 68.5415311,26.2133125 67.041,24.452 C65.011,22.07 62.497,20.293 59.692,19.117 C55.182,16.479 49.648,15.638 44.055,16.574 C52.47,13.859 61.284,15.52 66.519,21.658 Z" id="Shape" fill="#D3D3D3" opacity="0.7"></path>
                <g transform="translate(0.000000, 80.000000)" fill="#FCFCFC" id="Shape">
                    <path d="M13.322,8.852 L13.589,9.467 C13.741,9.817 13.579,10.227 13.23,10.379 L5.176,13.873 C4.8250033,14.0245446 4.41751333,13.8641401 4.264,13.514 L3.997,12.899 C3.84498399,12.5477401 4.00604503,12.1397188 4.357,11.987 L12.41,8.492 C12.76,8.34 13.171,8.502 13.322,8.852 Z M9.709,0.525 L9.977,1.14 C10.1272432,1.49128683 9.9666785,1.89805068 9.617,2.052 L1.563,5.546 C1.2120033,5.69754464 0.804513325,5.53714014 0.651,5.187 L0.384,4.572 C0.232577992,4.22073063 0.393472432,3.81313138 0.744,3.66 L8.797,0.165 C9.14827833,0.014168928 9.55545844,0.174897918 9.709,0.525 Z"></path>
                </g>
                <path d="M7.135,90.78 L4.664,91.852 C4.14380571,92.0795676 3.90551826,92.6848982 4.131,93.206 C4.356,93.725 4.965,93.965 5.484,93.74 L7.955,92.668 L7.135,90.78 Z M3.521,82.454 L1.051,83.526 C0.531,83.752 0.291,84.36 0.517,84.88 C0.742,85.399 1.351,85.639 1.87,85.414 L4.341,84.342 L3.521,82.454 Z M11.448,93.035 L5.618,79.601 L12.723,76.517 L18.553,89.952 L11.448,93.035 Z" id="Shape" fill="#EAEAEA"></path>
                <path d="M15.997,93.172 L8.665,76.277 L30.675,66.726 L38.006,83.622 L15.997,93.172 Z M23.666,56.185 C15.56,46.679 18.16,31.105 29.462,21.468 C40.763,11.831 56.553,11.725 64.658,21.231 C72.763,30.737 70.164,46.311 58.862,55.948 C47.56,65.585 31.771,65.69 23.666,56.185 Z M63.126,22.537 C55.74,13.876 41.225,14.084 30.769,23 C20.312,31.917 17.813,46.217 25.199,54.878 C32.584,63.539 47.099,63.331 57.556,54.415 C68.013,45.498 70.511,31.198 63.126,22.537 Z" id="Shape" fill="#F4F4F4"></path>
                <path d="M27.059,53.292 C18.953,43.786 21.553,28.212 32.855,18.575 C44.156,8.937 59.946,8.832 68.051,18.338 C76.156,27.844 73.557,43.418 62.255,53.055 C50.953,62.692 35.164,62.798 27.059,53.292 Z M66.519,19.645 C59.133,10.984 44.618,11.191 34.162,20.108 C23.705,29.024 21.206,43.325 28.592,51.986 C35.977,60.647 50.492,60.439 60.949,51.523 C71.405,42.605 73.903,28.306 66.519,19.645 Z" id="Shape" fill="#F4F4F4"></path>
                <path d="M26.049,57.393 C17.944,47.887 20.543,32.313 31.845,22.676 C43.147,13.039 58.936,12.933 67.041,22.439 C75.146,31.945 72.547,47.519 61.245,57.156 C49.943,66.793 34.154,66.898 26.049,57.393 Z M65.509,23.745 C58.123,15.084 43.609,15.291 33.152,24.208 C22.695,33.125 20.196,47.425 27.582,56.086 C34.968,64.747 49.482,64.539 59.939,55.623 C70.396,46.706 72.894,32.406 65.509,23.745 Z" id="Shape" fill="#F4F4F4"></path>
                <path d="M31.772,19.86 C31.916,19.668 46.514,0.684 73.254,2.301 L73.133,4.311 C47.504,2.762 33.519,20.887 33.381,21.071 L31.772,19.86 Z" id="Shape" fill="#F4F4F4"></path>
                <path d="M72.015,35.896 C71.987,36.134 68.844,59.875 44.882,71.853 L43.981,70.052 C66.948,58.571 69.988,35.88 70.015,35.653 L72.015,35.896 Z" id="Shape" fill="#F4F4F4"></path>
                <g transform="translate(31.000000, 66.000000)" id="Shape">
                    <polygon fill="#F4F4F4" points="11.814 0.424 15.323 8.239 4.452 13.119 0.943 5.305"></polygon>
                    <polygon fill="#A6A8AB" points="8.788 5.68 9.388 7.014 7.532 7.848 6.932 6.513"></polygon>
                </g>
                <g transform="translate(72.000000, 0.000000)" id="Shape">
                    <path d="M4.646,4.444 L4.79,3.198 C4.86518916,2.56537439 5.43688648,2.11203628 6.07,2.183 L9.636,2.595 C10.2687671,2.66916585 10.7225106,3.24092735 10.651,3.874 L10.507,5.12 C10.4323168,5.75247866 9.86090931,6.20594119 9.228,6.135 L5.661,5.723 C5.02823292,5.64883415 4.57448944,5.07707265 4.646,4.444 Z" fill="#A6A8AB"></path>
                    <path d="M7.902,5.025 L8.09,3.398 C8.12654254,3.09325405 8.40196316,2.87497094 8.707,2.909 L9.308,2.978 C9.61332373,3.01350739 9.83216883,3.28963709 9.797,3.595 L9.609,5.222 C9.57297323,5.52703414 9.2971996,5.74559703 8.992,5.711 L8.391,5.642 C8.08625405,5.60545746 7.86797094,5.33003684 7.902,5.025 Z" fill="#F4F4F4"></path>
                    <g transform="translate(8.000000, 3.000000)" fill="#EFCE73">
                        <path d="M0.555,0.486 L0.56,0.444 C0.562611602,0.422255023 0.582224809,0.406653609 0.604,0.409 L1.402,0.502 C1.41229757,0.502992586 1.42174534,0.508140722 1.42816186,0.516255738 C1.43457839,0.524370754 1.43740895,0.534751091 1.436,0.545 L1.431,0.588 C1.42975582,0.598380261 1.42439615,0.607826382 1.41612361,0.614218796 C1.40785108,0.620611209 1.39735841,0.623414626 1.387,0.622 L0.589,0.53 C0.578500234,0.529029576 0.568875771,0.523739989 0.562428354,0.515396272 C0.555980936,0.507052556 0.553290327,0.49640499 0.555,0.486 Z M0.521,0.785 C0.522751842,0.769041327 0.530826239,0.754450386 0.543417543,0.744490101 C0.556008846,0.734529816 0.57206665,0.730031105 0.588,0.732 L1.343,0.819 C1.37636988,0.822669128 1.40050318,0.852612288 1.397,0.886 C1.39333087,0.919369882 1.36338771,0.943503175 1.33,0.94 L0.574,0.853 C0.557843465,0.851262101 0.543082744,0.84304534 0.533093328,0.83022873 C0.523103911,0.81741212 0.518740168,0.801091833 0.521,0.785 Z M0.483,1.105 C0.484751842,1.08904133 0.492826239,1.07445039 0.505417543,1.0644901 C0.518008846,1.05452982 0.53406665,1.05003111 0.55,1.052 L1.305,1.139 C1.33836988,1.14266913 1.36250318,1.17261229 1.359,1.206 C1.35533087,1.23936988 1.32538771,1.26350318 1.292,1.26 L0.536,1.173 C0.519843465,1.1712621 0.505082744,1.16304534 0.495093328,1.15022873 C0.485103911,1.13741212 0.480740168,1.12109183 0.483,1.105 Z M0.446,1.426 C0.447751842,1.41004133 0.455826239,1.39545039 0.468417543,1.3854901 C0.481008846,1.37552982 0.49706665,1.37103111 0.513,1.373 L1.268,1.46 C1.30136988,1.46366913 1.32550318,1.49361229 1.322,1.527 C1.31833087,1.56036988 1.28838771,1.58450318 1.255,1.581 L0.5,1.493 C0.483860502,1.49149811 0.46901531,1.48353007 0.45884361,1.47090963 C0.448671909,1.45828919 0.444039194,1.44209019 0.446,1.426 Z M0.409,1.746 C0.410751842,1.73004133 0.418826239,1.71545039 0.431417543,1.7054901 C0.444008846,1.69552982 0.46006665,1.69103111 0.476,1.693 L1.231,1.78 C1.2471395,1.78150189 1.26198469,1.78946993 1.27215639,1.80209037 C1.28232809,1.81471081 1.28696081,1.83090981 1.285,1.847 C1.28133087,1.88036988 1.25138771,1.90450318 1.218,1.901 L0.463,1.813 C0.446860502,1.81149811 0.43201531,1.80353007 0.42184361,1.79090963 C0.411671909,1.77828919 0.407039194,1.76209019 0.409,1.746 Z M0.37,2.088 L0.375,2.046 C0.376008077,2.03563436 0.381120159,2.0261025 0.389197284,2.01952809 C0.397274409,2.01295369 0.407645537,2.00988294 0.418,2.011 L1.216,2.103 C1.23774498,2.1056116 1.25334639,2.12522481 1.251,2.147 L1.246,2.19 C1.24289696,2.2113415 1.22343407,2.226381 1.202,2.224 L0.404,2.132 C0.382658504,2.12889696 0.367618998,2.10943407 0.37,2.088 Z"></path>
                    </g>
                    <g>
                        <polygon fill="#F4F4F4" points="7.567 1.564 6.955 6.484 0.111 5.632 0.723 0.712"></polygon>
                        <polygon fill="#A6A8AB" points="4.46 3.243 4.355 4.083 3.187 3.937 3.291 3.097"></polygon>
                    </g>
                </g>
            </g>
            <g id="Group" transform="translate(277.000000, 201.000000)">
                <path d="M51.436,2.001 L6.614,31.171 C3.61294728,33.1279373 2.76288353,37.1451596 4.714,40.15 L45.907,103.448 C47.864697,106.449302 51.8825401,107.299308 54.888,105.348 L99.71,76.178 C102.710829,74.2203578 103.560403,70.2028903 101.609,67.198 L60.416,3.9 C58.4580214,0.899662118 54.4409991,0.0501826863 51.436,2.001 Z" id="Shape" fill="#D3D3D3" opacity="0.7"></path>
                <path d="M96.374,74.745 L51.553,103.915 C49.025,105.56 45.611,104.838 43.966,102.31 L2.773,39.013 C1.128,36.485 1.85,33.071 4.378,31.425 L49.2,2.256 C51.728,0.61 55.142,1.333 56.787,3.86 L97.98,67.158 C99.625,69.687 98.902,73.101 96.374,74.745 Z" id="Shape" fill="#414654"></path>
                <path d="M96.924,75.59 L52.102,104.759 C49.0967999,106.710498 45.079022,105.860954 43.121,102.86 L1.928,39.562 C-0.0226267199,36.5567412 0.827313838,32.5396537 3.828,30.582 L48.65,1.413 C51.649,-0.539 55.678,0.312 57.629,3.312 L98.822,66.61 C100.773593,69.6146305 99.9244808,73.6320328 96.924,75.59 Z M4.926,32.27 C2.85621048,33.6197609 2.26971345,36.3902995 3.615,38.463 L44.808,101.761 C46.1585205,103.831039 48.9296801,104.417478 51.003,103.072 L95.825,73.902 C97.894075,72.5511981 98.4799879,69.7808591 97.135,67.708 L55.942,4.411 C54.5922391,2.34121048 51.8217005,1.75471345 49.749,3.1 L4.926,32.27 Z" id="Shape" fill="#616775"></path>
                <path d="M31.714,59.139 L25.489,63.191 C24.623509,63.7504731 23.4686775,63.5061045 22.904,62.644 L21.531,60.534 C20.9715269,59.668509 21.2158955,58.5136775 22.078,57.949 L28.303,53.897 C29.1688005,53.3374299 30.3239438,53.5817699 30.889,54.444 L32.262,56.554 C32.822,57.415 32.576,58.578 31.714,59.139 Z M44.374,50.9 L38.149,54.952 C37.2830477,55.5119607 36.1273982,55.2670667 35.563,54.404 L34.19,52.295 C33.6304299,51.4291995 33.8747699,50.2740562 34.737,49.709 L40.962,45.658 C41.827491,45.0985269 42.9823225,45.3428955 43.547,46.205 L44.92,48.314 C45.480343,49.1794337 45.2363702,50.3349535 44.374,50.9 Z M57.033,42.662 L50.808,46.713 C49.9421995,47.2725701 48.7870562,47.0282301 48.222,46.166 L46.849,44.057 C46.2894299,43.1911995 46.5337699,42.0360562 47.396,41.471 L53.621,37.419 C54.4868005,36.8594299 55.6419438,37.1037699 56.207,37.966 L57.58,40.076 C58.1401518,40.941693 57.8957184,42.0972776 57.033,42.662 Z" id="Shape" fill="#D8D8D8"></path>
                <path d="M69.693,34.423 L63.467,38.475 C62.601509,39.0344731 61.4466775,38.7901045 60.882,37.928 L59.509,35.818 C58.9494299,34.9521995 59.1937699,33.7970562 60.056,33.232 L66.281,29.181 C67.1468005,28.6214299 68.3019438,28.8657699 68.867,29.728 L70.24,31.838 C70.8,32.699 70.554,33.862 69.693,34.423 Z" id="Shape" fill="#369B1E"></path>
                <path d="M37.516,68.054 L31.291,72.105 C30.4251995,72.6645701 29.2700562,72.4202301 28.705,71.558 L27.332,69.449 C26.7724299,68.5831995 27.0167699,67.4280562 27.879,66.863 L34.104,62.811 C34.9698005,62.2514299 36.1249438,62.4957699 36.69,63.358 L38.063,65.468 C38.623,66.329 38.377,67.493 37.516,68.054 Z M50.175,59.814 L43.95,63.866 C43.084509,64.4254731 41.9296775,64.1811045 41.365,63.319 L39.992,61.209 C39.4318482,60.343307 39.6762816,59.1877224 40.539,58.623 L46.764,54.572 C47.6298005,54.0124299 48.7849438,54.2567699 49.35,55.119 L50.723,57.229 C51.283,58.091 51.037,59.254 50.175,59.814 Z M62.834,51.576 L56.609,55.627 C55.7434149,56.1877345 54.5873878,55.9432075 54.023,55.08 L52.65,52.971 C52.0904299,52.1051995 52.3347699,50.9500562 53.197,50.385 L59.423,46.334 C60.288491,45.7745269 61.4433225,46.0188955 62.008,46.881 L63.381,48.99 C63.9411518,49.855693 63.6967184,51.0112776 62.834,51.576 Z" id="Shape" fill="#F4F4F4"></path>
                <path d="M75.494,43.338 L69.269,47.389 C68.4031995,47.9485701 67.2480562,47.7042301 66.683,46.842 L65.31,44.733 C64.7504299,43.8671995 64.9947699,42.7120562 65.857,42.147 L72.082,38.095 C72.9478005,37.5354299 74.1029438,37.7797699 74.668,38.642 L76.041,40.752 C76.6005701,41.6178005 76.3562301,42.7729438 75.494,43.338 Z" id="Shape" fill="#F95353"></path>
                <g transform="translate(32.000000, 46.000000)" fill="#F4F4F4" id="Shape">
                    <path d="M11.317,30.968 L5.092,35.02 C4.22619948,35.5795701 3.07105624,35.3352301 2.506,34.473 L1.133,32.363 C0.573429887,31.4971995 0.81776993,30.3420562 1.68,29.777 L7.905,25.726 C8.77080052,25.1664299 9.92594376,25.4107699 10.491,26.273 L11.864,28.382 C12.424,29.244 12.178,30.407 11.317,30.968 Z M23.977,22.729 L17.751,26.78 C16.885509,27.3394731 15.7306775,27.0951045 15.166,26.233 L13.793,24.124 C13.2334299,23.2581995 13.4777699,22.1030562 14.34,21.538 L20.565,17.486 C21.4308005,16.9264299 22.5859438,17.1707699 23.151,18.033 L24.524,20.143 C25.084,21.005 24.838,22.169 23.977,22.729 Z M36.636,14.49 L30.411,18.542 C29.545509,19.1014731 28.3906775,18.8571045 27.826,17.995 L26.452,15.885 C25.8924299,15.0191995 26.1367699,13.8640562 26.999,13.299 L33.224,9.248 C34.089491,8.68852691 35.2443225,8.93289551 35.809,9.795 L37.183,11.905 C37.7430551,12.7703834 37.498593,13.9256566 36.636,14.49 Z M49.295,6.252 L43.07,10.304 C42.2040477,10.8639607 41.0483982,10.6190667 40.484,9.756 L39.111,7.647 C38.5514299,6.78119948 38.7957699,5.62605624 39.658,5.061 L45.884,1.01 C46.7493834,0.449944907 47.9046566,0.694406972 48.469,1.557 L49.842,3.666 C50.4021518,4.531693 50.1577184,5.68727761 49.295,6.252 Z"></path>
                </g>
                <g transform="translate(38.000000, 55.000000)" fill="#F4F4F4" id="Shape">
                    <path d="M11.118,30.883 L4.893,34.934 C4.02750898,35.4934731 2.8726775,35.2491045 2.308,34.387 L0.934,32.277 C0.374526914,31.411509 0.618895511,30.2566775 1.481,29.692 L7.706,25.64 C8.57149102,25.0805269 9.7263225,25.3248955 10.291,26.187 L11.665,28.297 C12.2251518,29.162693 11.9807184,30.3182776 11.118,30.883 Z M23.778,22.644 L17.553,26.696 C16.6871995,27.2555701 15.5320562,27.0112301 14.967,26.149 L13.594,24.039 C13.0344299,23.1731995 13.2787699,22.0180562 14.141,21.453 L20.366,17.402 C21.2318005,16.8424299 22.3869438,17.0867699 22.952,17.949 L24.325,20.058 C24.885,20.92 24.639,22.083 23.778,22.644 Z M36.438,14.405 L30.213,18.456 C29.3471995,19.0155701 28.1920562,18.7712301 27.627,17.909 L26.254,15.8 C25.6944299,14.9341995 25.9387699,13.7790562 26.801,13.214 L33.026,9.162 C33.8918005,8.60242989 35.0469438,8.84676993 35.612,9.709 L36.985,11.819 C37.545,12.681 37.299,13.845 36.438,14.405 Z M49.097,6.166 L42.872,10.218 C42.006509,10.7774731 40.8516775,10.5331045 40.287,9.671 L38.913,7.561 C38.3534299,6.69519948 38.5977699,5.54005624 39.46,4.975 L45.685,0.924 C46.550491,0.364526914 47.7053225,0.608895511 48.27,1.471 L49.643,3.581 C50.2032462,4.44612408 49.9592448,5.60133244 49.097,6.166 Z"></path>
                </g>
                <g transform="translate(44.000000, 64.000000)" fill="#F4F4F4" id="Shape">
                    <path d="M10.919,30.797 L4.694,34.848 C3.82850898,35.4074731 2.6736775,35.1631045 2.109,34.301 L0.736,32.192 C0.175848222,31.326307 0.420281625,30.1707224 1.283,29.606 L7.508,25.554 C8.3736428,24.9941359 9.52898096,25.2390586 10.093,26.102 L11.467,28.211 C12.027,29.072 11.781,30.236 10.919,30.797 Z M23.579,22.559 L17.354,26.61 C16.4881995,27.1695701 15.3330562,26.9252301 14.768,26.063 L13.395,23.953 C12.8355269,23.087509 13.0798955,21.9326775 13.942,21.368 L20.167,17.316 C21.032491,16.7565269 22.1873225,17.0008955 22.752,17.863 L24.125,19.973 C24.6859256,20.8383257 24.4418593,21.9942879 23.579,22.559 Z M36.239,14.319 L30.014,18.371 C29.1481995,18.9305701 27.9930562,18.6862301 27.428,17.824 L26.055,15.714 C25.4954299,14.8481995 25.7397699,13.6930562 26.602,13.128 L32.827,9.077 C33.6928005,8.51742989 34.8479438,8.76176993 35.413,9.624 L36.786,11.733 C37.346,12.596 37.1,13.759 36.239,14.319 Z M48.898,6.081 L42.672,10.132 C41.806509,10.6914731 40.6516775,10.4471045 40.087,9.585 L38.714,7.476 C38.1544299,6.61019948 38.3987699,5.45505624 39.261,4.89 L45.486,0.838 C46.3518005,0.278429887 47.5069438,0.52276993 48.072,1.385 L49.445,3.495 C50.0051518,4.360693 49.7607184,5.51627761 48.898,6.081 Z"></path>
                </g>
                <g transform="translate(8.000000, 8.000000)" id="Shape">
                    <path d="M54.385,17.035 L11.865,44.707 C10.88072,45.343537 9.56714448,45.0656309 8.925,44.085 L1.058,31.996 C0.420880732,31.0118277 0.698880352,29.6978102 1.68,29.056 L44.2,1.384 C45.1845895,0.747366073 46.4984767,1.0252436 47.141,2.006 L55.008,14.095 C55.6431839,15.0797534 55.365004,16.3925126 54.385,17.035 Z" fill="#2C2E3A"></path>
                    <path d="M54.647,17.466 L12.152,45.121 C10.9279962,45.914875 9.29240862,45.5687047 8.495,44.347 L0.643,32.283 C-0.150875017,31.0589962 0.195295275,29.4234086 1.417,28.626 L43.912,0.971 C45.1361122,0.177709289 46.7712556,0.523785589 47.569,1.745 L55.42,13.809 C56.2140657,15.0327442 55.8683564,16.6682666 54.647,17.466 Z M1.966,29.47 C1.20887264,29.9631412 0.994480641,30.976468 1.487,31.734 L9.338,43.798 C9.83114124,44.5551274 10.844468,44.7695194 11.602,44.277 L54.097,16.622 C54.8541274,16.1288588 55.0685194,15.115532 54.576,14.358 L46.724,2.294 C46.2308588,1.53687264 45.217532,1.32248064 44.46,1.815 L1.966,29.47 Z" fill="#616775"></path>
                </g>
            </g>
            <g id="Group" transform="translate(342.000000, 190.000000)">
                <polygon id="Shape" fill="#EFD5A9" points="6.801 10.657 0.746 0.01 5.296 11.667"></polygon>
                <polygon id="Shape" fill="#D6B59D" points="0.746 0.01 8.315 9.65 6.801 10.657"></polygon>
                <polygon id="Shape" fill="#FEC873" points="53.935 81.189 52.421 82.198 5.296 11.667 6.801 10.657"></polygon>
                <polygon id="Shape" fill="#EFB065" points="55.438 80.184 53.935 81.189 6.801 10.657 8.315 9.65"></polygon>
                <polygon id="Shape" fill="#E39B47" points="56.949 79.176 55.438 80.184 8.315 9.65 9.822 8.637"></polygon>
                <polygon id="Shape" fill="#C3A386" points="0.746 0.01 9.822 8.637 8.315 9.65"></polygon>
                <path d="M2.706,2.507 C2.664,2.552 2.611,2.58 2.561,2.611 C2.48133867,2.66899984 2.39547837,2.71796704 2.305,2.757 C2.17030614,2.82066927 2.03089056,2.87382772 1.888,2.916 L0.749,0.012 L3.032,2.183 C2.93800655,2.30482405 2.82840016,2.41375801 2.706,2.507 Z" id="Shape" fill="#5D5F63"></path>
            </g>
            <g id="Group">
                <polygon id="Shape" fill="url(#linearGradient-10)" points="0.561 328.248 178.789 150.02 422.182 89.973 178.448 333.706"></polygon>
                <path d="M247.349,129.401 C250.594,143.707 278.766,161.655 306.95,155.261 C335.253,148.84 352.782,120.524 349.536,106.216 C346.292,91.915 320.812,85.505 292.509,91.925 C264.325,98.319 244.104,115.102 247.349,129.401 Z" id="Shape" fill="#BDBEC0"></path>
                <path d="M247.549,128.606 C250.796,142.915 278.763,159.986 306.952,153.591 C335.25,147.171 352.983,119.731 349.738,105.421 C346.493,91.12 321.013,84.704 292.714,91.124 C264.525,97.521 244.304,114.305 247.549,128.606 Z" id="Shape" fill="#4B72AA"></path>
                <path d="M247.801,127.613 C251.048,141.918 279.218,159.868 307.403,153.472 C335.705,147.053 353.233,118.736 349.988,104.429 C346.743,90.126 321.261,83.708 292.96,90.13 C264.776,96.524 244.556,113.308 247.801,127.613 Z M111.82,86.205 C112.243,88.072 114.583,89.124 117.051,88.565 L445.819,13.979 C448.29,13.418 449.95,11.459 449.527,9.593 L447.937,2.58 C447.515,0.723 445.168,-0.336 442.699,0.226 L113.931,74.813 C111.464,75.373 109.807,77.337 110.229,79.195 L111.82,86.205 Z" id="Shape" fill="#2C2E3A"></path>
                <path d="M424.263,92.635 C423.821,94.051 422.004,95.521 420.201,95.93 L180.186,150.38 C178.394,150.787 176.06,150.259 174.964,149.192 L168.337,142.704 L427.384,83.933 L424.263,92.635 Z" id="Shape" fill="#BDBEC0"></path>
                <path d="M114.354,85.043 L446.598,9.668 C449.095,9.101 450.447,10.767 449.634,13.344 L428.215,82.49 L428.176,82.594 L428.132,82.605 L424.97,91.321 C424.523,92.741 422.693,94.211 420.875,94.624 L179.025,149.49 C177.216,149.901 174.864,149.379 173.764,148.309 L167.095,141.825 L167.149,141.812 L167.068,141.733 L113.474,89.607 C111.48,87.666 111.86,85.607 114.354,85.043 Z" id="Shape" fill="#414654"></path>
                <path d="M445.042,14.77 L420.933,88.481 L176.412,143.811 L120.135,88.723 C119.842,88.435 445.042,14.77 445.042,14.77 Z" id="Shape" fill="#FFFFFF"></path>
                <polygon id="Shape" fill="#F4F4F4" points="445.926 14.455 422.417 89.442 175.755 144.104 119.909 88.514"></polygon>
                <polygon id="Shape" fill="#F9F9F9" points="445.926 14.455 296.678 116.597 422.417 89.442"></polygon>
            </g>
            <g id="Group" opacity="0.2" transform="translate(141.000000, 21.000000)" fill="#353535">
                <path d="M190.237,76.119 L190.851,84.071 L271.17,65.41 L273.368,56.806 L190.237,76.119 Z M99.296,91.171 L100.149,92.892 L274.497,52.386 L275.018,50.346 L99.296,91.171 Z M96.287,85.1 L97.187,86.916 L276.306,45.302 L276.855,43.148 L96.287,85.1 Z M93.106,78.686 L94.059,80.605 L278.216,37.82 L278.797,35.543 L93.106,78.686 Z M21.47,92.254 L43.674,118.266 L97.969,105.65 L83.084,77.938 L21.47,92.254 Z M89.74,71.895 L90.748,73.929 L280.237,29.904 L280.853,27.493 L89.74,71.895 Z M78.348,48.916 L79.558,51.356 L287.071,3.145 L287.81,0.251 L78.348,48.916 Z M0.012,67.115 L19.078,89.451 L81.48,74.953 L68.699,51.157 L0.012,67.115 Z" id="Shape"></path>
                <g transform="translate(86.000000, 18.000000)" id="Shape">
                    <polygon points="0.171 46.696 1.241 48.854 196.379 3.517 197.033 0.959"></polygon>
                </g>
                <g transform="translate(82.000000, 9.000000)" id="Shape">
                    <polygon points="0.381 48.051 1.518 50.343 202.653 3.613 203.347 0.895"></polygon>
                </g>
            </g>
        </g>
    </g>
</svg>