<?xml version="1.0" encoding="UTF-8"?>
<svg width="716px" height="543px" viewBox="0 0 716 543" version="1.1" xmlns="http://www.w3.org/2000/svg" xmlns:xlink="http://www.w3.org/1999/xlink">
    <!-- Generator: Sketch 51.3 (57544) - http://www.bohemiancoding.com/sketch -->
    <title>developers</title>
    <desc>Created with Sketch.</desc>
    <defs></defs>
    <g id="Page-1" stroke="none" stroke-width="1" fill="none" fill-rule="evenodd">
        <g id="developers">
            <g id="Group" transform="translate(18.000000, 0.000000)" fill="#EAEAEA" fill-rule="nonzero">
                <path d="M138.834,0.722 L222.334,0.722 C227.917,0.722 232.444,5.248 232.444,10.831 C232.444,16.414 227.918,20.941 222.334,20.941 L138.834,20.941 C133.251,20.941 128.724,16.415 128.724,10.831 C128.725,5.248 133.251,0.722 138.834,0.722 Z" id="Shape"></path>
                <path d="M190.698,40.9970004 L139.148,40.997 C141.942,40.997 144.472,39.864 146.296,38.039 C148.197122,36.1432005 149.264195,33.5678296 149.261,30.883 C149.261,25.302 144.735,20.777 139.147,20.7769957 L190.697,20.777 C188.013983,20.7745325 185.440016,21.8386547 183.542,23.735 C181.645785,25.6302413 180.581519,28.2020366 180.584,30.883 C180.583204,33.5656435 181.648527,36.1386416 183.545443,38.0355571 C185.442358,39.9324726 188.015356,40.9977961 190.698,40.9970004 Z" id="Shape"></path>
                <path d="M113.279,40.994 L196.779,40.994 C202.362,40.994 206.889,45.52 206.889,51.104 C206.889,56.687 202.363,61.214 196.779,61.214 L113.279,61.214 C107.696,61.214 103.169,56.688 103.169,51.104 C103.169,45.521 107.695,40.994 113.279,40.994 Z" id="Shape"></path>
                <g transform="translate(0.000000, 127.000000)" id="Shape">
                    <path d="M10.978,0.514 L94.478,0.514 C100.061,0.514 104.588,5.04 104.588,10.624 C104.588,16.207 100.062,20.734 94.478,20.734 L10.978,20.734 C5.395,20.734 0.868,16.208 0.868,10.624 C0.868,5.041 5.395,0.514 10.978,0.514 Z M34.578,79.265 L118.078,79.265 C123.661,79.265 128.188,83.791 128.188,89.375 C128.188,94.958 123.662,99.485 118.078,99.485 L34.578,99.485 C28.995,99.485 24.468,94.959 24.468,89.375 C24.468,83.791 28.994,79.265 34.578,79.265 Z"></path>
                    <path d="M83.575,39.7890008 L32.025,39.7890008 C34.819,39.789 37.349,38.656 39.173,36.831 C41.074122,34.9352005 42.141195,32.3598296 42.138,29.675 C42.138,24.094 37.613,19.569 32.025,19.5689857 L83.575,19.5689857 C80.8926047,19.5644827 78.3186571,20.6275122 76.4211642,22.5235043 C74.5236712,24.4194963 73.4586052,26.9926019 73.461,29.675 C73.4599384,32.3577249 74.5251765,34.9308772 76.4221497,36.8278503 C78.3191228,38.7248235 80.8922751,39.7900616 83.575,39.7890008 Z M115.64,80.2650004 L64.09,80.2650004 C66.884,80.265 69.414,79.132 71.238,77.307 C73.1391574,75.4116334 74.2062608,72.836549 74.203,70.152 C74.203,64.571 69.678,60.046 64.09,60.0459857 L115.64,60.0459857 C112.957605,60.0414827 110.383657,61.1045122 108.486164,63.0005043 C106.588671,64.8964963 105.523605,67.4696019 105.526,70.152 C105.525469,72.8344703 106.59091,75.4072114 108.487797,77.3039106 C110.384683,79.2006098 112.95753,80.265796 115.64,80.2650004 Z"></path>
                    <path d="M22.256,39.787 L157.472,39.787 C163.055,39.787 167.582,44.313 167.582,49.897 C167.582,55.48 163.056,60.007 157.472,60.007 L22.256,60.007 C16.673,60.007 12.146,55.481 12.146,49.897 C12.146,44.313 16.673,39.787 22.256,39.787 Z"></path>
                </g>
            </g>
            <polygon id="Shape" fill="#CDD5D9" fill-rule="nonzero" points="538.974 483.567 416.605 483.567 416.605 284.931 477.789 284.698 538.974 338.997"></polygon>
            <g id="Group" transform="translate(486.000000, 349.000000)" fill="#B3BABD" fill-rule="nonzero">
                <path d="M0.206,0.677 L37.47,0.677 L37.47,20.942 L0.206,20.942 L0.206,0.677 Z M0.206,32.517 L37.47,32.517 L37.47,52.783 L0.206,52.783 L0.206,32.517 Z M0.206,64.356 L37.47,64.356 L37.47,84.622 L0.206,84.622 L0.206,64.356 Z M0.206,96.197 L37.47,96.197 L37.47,116.463 L0.206,116.463 L0.206,96.197 Z" id="Shape"></path>
            </g>
            <path d="M299.211,483.567 L198.562,483.567 L198.562,341.15 C259.746,341.153 235.771,341.153 299.211,341.15 L299.211,483.567 Z" id="Shape" fill="#CDD5D9" fill-rule="nonzero"></path>
            <g id="Group" transform="translate(211.000000, 372.000000)" fill="#B3BABD" fill-rule="nonzero">
                <path d="M0.202,0.942 L30.944,0.942 L30.944,17.661 L0.202,17.661 L0.202,0.942 Z M44.831,0.942 L75.572,0.942 L75.572,17.661 L44.831,17.661 L44.831,0.942 Z M0.202,27.21 L30.944,27.21 L30.944,43.929 L0.202,43.929 L0.202,27.21 Z M44.831,27.21 L75.572,27.21 L75.572,43.929 L44.831,43.929 L44.831,27.21 Z M0.202,53.478 L30.944,53.478 L30.944,70.197 L0.202,70.197 L0.202,53.478 Z M44.831,53.478 L75.572,53.478 L75.572,70.197 L44.831,70.197 L44.831,53.478 Z M0.202,79.745 L30.944,79.745 L30.944,96.464 L0.202,96.464 L0.202,79.745 Z M44.831,79.745 L75.572,79.745 L75.572,96.464 L44.831,96.464 L44.831,79.745 Z" id="Shape"></path>
            </g>
            <polygon id="Shape" fill="#B9C0C4" fill-rule="nonzero" points="298.14 194.426 420.508 194.426 420.508 483.567 298.14 483.567"></polygon>
            <polygon id="Shape" fill="#58A328" fill-rule="nonzero" points="308.725 423.489 352.632 423.489 352.632 468.093 308.725 468.093"></polygon>
            <path d="M320.223,435.171 L328.914,435.171 L328.914,456.412 L320.223,456.412 L320.223,435.171 Z M333.392,435.171 L342.083,435.171 L342.083,456.412 L333.392,456.412 L333.392,435.171 Z" id="Shape" fill="#525252" fill-rule="nonzero"></path>
            <polygon id="Shape" fill="#3D7F16" fill-rule="nonzero" points="352.632 423.489 396.539 423.489 396.539 468.093 352.632 468.093"></polygon>
            <path d="M364.131,435.171 L372.822,435.171 L372.822,456.412 L364.131,456.412 L364.131,435.171 Z M377.299,435.171 L385.99,435.171 L385.99,456.412 L377.299,456.412 L377.299,435.171 Z" id="Shape" fill="#525252" fill-rule="nonzero"></path>
            <polygon id="Shape" fill="#3B7715" fill-rule="nonzero" points="395.539 423.489 439.446 423.489 439.446 468.093 395.539 468.093"></polygon>
            <path d="M407.038,435.171 L416.729,435.171 L416.729,456.412 L407.038,456.412 L407.038,435.171 Z M420.206,435.171 L429.897,435.171 L429.897,456.412 L420.206,456.412 L420.206,435.171 Z" id="Shape" fill="#525252" fill-rule="nonzero"></path>
            <polygon id="Shape" fill="#58A328" fill-rule="nonzero" points="308.725 334.237 352.632 334.237 352.632 378.841 308.725 378.841"></polygon>
            <path d="M320.223,345.918 L328.914,345.918 L328.914,367.16 L320.223,367.16 L320.223,345.918 Z M333.392,345.918 L342.083,345.918 L342.083,367.16 L333.392,367.16 L333.392,345.918 Z" id="Shape" fill="#525252" fill-rule="nonzero"></path>
            <g id="Group" transform="translate(352.000000, 334.000000)" fill-rule="nonzero">
                <polygon id="Shape" fill="#478225" points="0.632 0.237 44.539 0.237 44.539 44.841 0.632 44.841"></polygon>
                <path d="M12.131,11.918 L20.822,11.918 L20.822,33.16 L12.131,33.16 L12.131,11.918 Z M25.299,11.918 L33.99,11.918 L33.99,33.16 L25.299,33.16 L25.299,11.918 Z" id="Shape" fill="#525252"></path>
            </g>
            <g id="Group" transform="translate(395.000000, 334.000000)" fill-rule="nonzero">
                <polygon id="Shape" fill="#3E6D1F" points="0.539 0.237 44.446 0.237 44.446 44.841 0.539 44.841"></polygon>
                <path d="M12.038,11.918 L20.729,11.918 L20.729,33.16 L12.038,33.16 L12.038,11.918 Z M26.206,11.918 L33.897,11.918 L33.897,33.16 L26.206,33.16 L26.206,11.918 Z" id="Shape" fill="#525252"></path>
            </g>
            <g id="Group" transform="translate(308.000000, 378.000000)" fill-rule="nonzero">
                <polygon id="Shape" fill="#438419" points="0.725 0.841 44.632 0.841 44.632 45.445 0.725 45.445"></polygon>
                <path d="M12.223,12.522 L20.914,12.522 L20.914,33.763 L12.223,33.763 L12.223,12.522 Z M25.392,12.522 L34.083,12.522 L34.083,33.763 L25.392,33.763 L25.392,12.522 Z" id="Shape" fill="#525252"></path>
            </g>
            <g id="Group" transform="translate(352.000000, 378.000000)" fill-rule="nonzero">
                <polygon id="Shape" fill="#58A328" points="0.632 0.841 44.539 0.841 44.539 45.445 0.632 45.445"></polygon>
                <path d="M12.131,12.522 L20.822,12.522 L20.822,33.763 L12.131,33.763 L12.131,12.522 Z M25.299,12.522 L33.99,12.522 L33.99,33.763 L25.299,33.763 L25.299,12.522 Z" id="Shape" fill="#525252"></path>
            </g>
            <g id="Group" transform="translate(395.000000, 378.000000)" fill-rule="nonzero">
                <polygon id="Shape" fill="#58A328" points="0.539 0.841 44.446 0.841 44.446 45.445 0.539 45.445"></polygon>
                <path d="M12.038,12.522 L21.729,12.522 L21.729,33.763 L12.038,33.763 L12.038,12.522 Z M25.206,12.522 L33.897,12.522 L33.897,33.763 L25.206,33.763 L25.206,12.522 Z" id="Shape" fill="#525252"></path>
            </g>
            <g id="Group" transform="translate(308.000000, 289.000000)" fill-rule="nonzero">
                <polygon id="Shape" fill="#4E842A" points="0.725 0.633 44.632 0.633 44.632 45.237 0.725 45.237"></polygon>
                <path d="M12.223,12.314 L20.914,12.314 L20.914,33.556 L12.223,33.556 L12.223,12.314 Z M25.392,12.314 L34.083,12.314 L34.083,33.556 L25.392,33.556 L25.392,12.314 Z" id="Shape" fill="#525252"></path>
            </g>
            <g id="Group" transform="translate(352.000000, 289.000000)" fill-rule="nonzero">
                <polygon id="Shape" fill="#58A328" points="0.632 0.633 44.539 0.633 44.539 45.237 0.632 45.237"></polygon>
                <path d="M12.131,12.314 L20.822,12.314 L20.822,33.556 L12.131,33.556 L12.131,12.314 Z M25.299,12.314 L33.99,12.314 L33.99,33.556 L25.299,33.556 L25.299,12.314 Z" id="Shape" fill="#525252"></path>
            </g>
            <polygon id="Shape" fill="#5E5247" fill-rule="nonzero" points="308.725 468.094 439.447 468.094 439.447 483.568 308.725 483.568"></polygon>
            <g id="Group" transform="translate(0.000000, 378.000000)" fill-rule="nonzero">
                <g fill="#CBCBCB" id="Shape">
                    <path d="M17.967,0.13 L59.75,0.13 C62.516548,0.168895123 64.7388681,2.42267856 64.7388681,5.1895 C64.7388681,7.95632144 62.516548,10.2101049 59.75,10.249 L17.967,10.249 C15.1727153,10.249 12.9075,7.98378469 12.9075,5.1895 C12.9075,2.39521531 15.1727153,0.13 17.967,0.13 Z"></path>
                    <path d="M43.919,20.2830044 L18.124,20.283 C19.4654664,20.2847619 20.7524888,19.7526103 21.701,18.804 C23.1488988,17.3569427 23.5822815,15.1800538 22.798985,13.2888023 C22.0156886,11.3975508 20.1700431,10.1645632 18.123,10.164992 L43.918,10.165 C42.5757008,10.1626081 41.2876321,10.6945015 40.3381066,11.6432765 C39.3885811,12.5920516 38.8556694,13.8796993 38.857,15.222 C38.8567346,16.5645153 39.3899976,17.8521062 40.3393931,18.8013141 C41.2887885,19.750522 42.5764848,20.2835307 43.919,20.2830044 Z"></path>
                    <path d="M5.179,19.282 L46.963,19.282 C49.729548,19.3208951 51.9518681,21.5746786 51.9518681,24.3415 C51.9518681,27.1083214 49.729548,29.3621049 46.963,29.401 L5.179,29.401 C2.38471531,29.401 0.1195,27.1357847 0.1195,24.3415 C0.1195,21.5472153 2.38471531,19.282 5.179,19.282 Z"></path>
                </g>
                <path d="M24.032,99.312 L118.257,99.312 C121.14324,99.312 123.483,96.9722401 123.483,94.086 L123.483,83.996 C123.483,81.1095981 121.143402,78.7695522 118.257,78.769 L24.032,78.769 C21.1455981,78.7695522 18.8059999,81.1095981 18.806,83.996 L18.806,94.086 C18.806,96.9722401 21.1457599,99.312 24.032,99.312 Z" id="Shape" fill="#666666"></path>
                <circle id="Oval" fill="#000000" cx="34.978" cy="96.035" r="11.801"></circle>
                <circle id="Oval" fill="#B2B2B2" cx="34.978" cy="96.035" r="7.43"></circle>
                <circle id="Oval" fill="#434343" cx="34.978" cy="96.035" r="3.715"></circle>
                <circle id="Oval" fill="#000000" cx="106.129" cy="96.035" r="11.801"></circle>
                <circle id="Oval" fill="#B2B2B2" cx="106.129" cy="96.035" r="7.43"></circle>
                <circle id="Oval" fill="#434343" cx="106.129" cy="96.035" r="3.715"></circle>
                <polygon id="Shape" fill="#434343" points="48.089 70.209 88.517 70.209 88.517 73.745 48.089 73.745"></polygon>
                <polygon id="Shape" fill="#2D2829" points="56.558 73.745 78.684 73.745 78.684 78.77 56.558 78.77"></polygon>
                <path d="M175.787,96.925 C186.503,93.199 192.169,81.492 188.443,70.777 L187.941,69.332 L168.539,76.079 L175.787,96.925 Z" id="Shape" fill="#434343"></path>
                <polygon id="Shape" fill="#2D2829" points="163.2 77.918 168.522 76.068 175.771 96.913 170.448 98.763"></polygon>
                <polygon id="Shape" fill="#2D2829" points="164.05 95.117 173.937 91.679 175.761 96.923 165.873 100.361"></polygon>
                <path d="M181.971,71.423 L168.555,76.087 L163.603,61.845 L177.019,57.181 L181.971,71.423 Z M148.925,19.669 L162.342,15.004 L153.935,1.963 L147.427,4.226 L148.925,19.669 Z" id="Shape" fill="#FF1D25"></path>
                <path d="M170.264,59.496 L163.555,61.828 L148.895,19.659 L155.604,17.327 L170.264,59.496 Z M167.57,30.053 L162.616,31.775 L157.382,16.715 L162.335,14.993 L167.57,30.053 Z" id="Shape" fill="#FF1D25"></path>
                <polygon id="Shape" fill="#CBCBCB" points="174.547 58.036 172.069 58.897 162.644 31.789 165.121 30.928"></polygon>
                <path d="M146.006,24.686 L137.784,11.064 L154.36,5.844 L158.349,12.451 L146.006,24.686 Z M146.006,24.686 L141.895,17.875 L99.085,43.716 L108.256,58.908 L146.006,24.686 Z M110.256,27.688 L113.292,32.718 L98.002,41.945 L94.966,36.915 L110.256,27.688 Z" id="Shape" fill="#C0272D"></path>
                <polygon id="Shape" fill="#CBCBCB" points="139.302 13.596 140.82 16.111 113.296 32.721 111.777 30.206"></polygon>
                <path d="M71.145,46.088 L71.145,24.467 C71.145,21.200788 73.792788,18.553 77.059,18.553 L102.162,18.553 C103.730664,18.5527348 105.23517,19.175698 106.344476,20.2848169 C107.453782,21.3939358 108.077,22.8983364 108.077,24.467 L108.077,66.862 C108.077265,67.8437395 107.687457,68.7853602 106.993356,69.4796487 C106.299255,70.1739371 105.35774,70.564 104.376,70.564 L36.166,70.564 C34.1214419,70.564 32.464,68.9065581 32.464,66.862 L32.464,55.124 C32.464,50.1341073 36.5091073,46.089 41.499,46.089 L71.145,46.089 L71.145,46.088 Z" id="Shape" fill="#FF1D25"></path>
                <path d="M38.692,51.441 L65.571,51.441 L65.571,53.044 L38.692,53.044 L38.692,51.441 Z M38.692,53.846 L65.571,53.846 L65.571,55.449 L38.692,55.449 L38.692,53.846 Z M38.692,56.249 L65.571,56.249 L65.571,57.852 L38.692,57.852 L38.692,56.249 Z M38.692,58.653 L65.571,58.653 L65.571,60.256 L38.692,60.256 L38.692,58.653 Z" id="Shape" fill="#C0272D"></path>
                <path d="M104.903,27.269 L104.903,52.458 C104.903,54.5507687 103.206769,56.2474478 101.114,56.248 L85.797,56.248 C83.8067922,56.2470936 82.1561201,54.7073396 82.017,52.722 L82.017,52.712 C82.008,52.628 82.008,52.543 82.008,52.458 L82.008,27.269 C82.0074427,25.1745419 83.7025477,23.4749631 85.797,23.47 L101.114,23.47 C103.01399,23.4677272 104.620084,24.8768595 104.865,26.761 C104.894,26.92 104.903,27.099 104.903,27.269 Z" id="Shape" fill="#29AAE1"></path>
                <polygon id="Shape" fill="#C0272D" points="38.692 64.348 65.571 64.348 65.571 65.951 38.692 65.951"></polygon>
                <path d="M104.903,27.269 L104.903,35.036 L82.007,48.275 L82.007,39.981 L104.865,26.761 C104.894,26.92 104.903,27.099 104.903,27.269 Z M104.903,36.482 L104.903,39.472 L82.017,52.711 C82.008,52.627 82.008,52.542 82.008,52.457 L82.008,49.721 L104.903,36.482 Z" id="Shape" fill="#FFFFFF"></path>
            </g>
            <g id="Group" transform="translate(11.000000, 483.000000)" fill="#736357" fill-rule="nonzero">
                <path d="M672.268,0.567 L10.602,0.567 C4.87,0.567 0.224,5.213 0.224,10.946 C0.224,16.677 4.87,21.324 10.602,21.324 L672.268,21.324 C678,21.324 682.647,16.678 682.647,10.946 C682.646,5.214 678,0.567 672.268,0.567 Z" id="Shape"></path>
                <path d="M456.712,38.038 C458.655448,39.9877815 461.296069,41.0822516 464.049,41.0790072 L297.725,41.0790072 C300.477742,41.0800616 303.118044,39.9870092 305.064527,38.0405265 C307.011009,36.0940438 308.104062,33.453742 308.103,30.701 C308.103,27.837 306.942,25.244 305.062,23.364 C303.120127,21.4118673 300.478481,20.3169724 297.725,20.3229752 L464.049,20.3229752 C458.32,20.323 453.671,24.972 453.671,30.701 C453.671,33.572 454.831,36.165 456.712,38.038 Z" id="Shape"></path>
                <path d="M511.963,40.082 L81.385,40.082 C75.653,40.082 71.007,44.728 71.007,50.46 C71.007,56.192 75.653,60.839 81.385,59.839 L511.963,59.839 C517.695,60.839 522.342,56.193 522.342,50.46 C522.342,44.729 517.695,40.082 511.963,40.082 Z" id="Shape"></path>
            </g>
            <g id="Group" transform="translate(236.000000, 27.000000)">
                <path d="M337.465,94.246 L373.195,94.246 L373.195,437.135 L337.465,437.135 L337.465,94.246 Z M373.195,6.383 L337.465,58.515 L373.195,58.515 L373.195,6.383 Z" id="Shape" stroke="#458FA3" stroke-width="3.761"></path>
                <polyline id="Shape" stroke="#458FA3" stroke-width="3.761" points="371.315 94.246 339.346 112.29 371.315 130.334 339.346 148.38 371.315 166.427 339.346 184.472 371.315 202.519 339.346 220.564 371.315 238.606 339.346 256.651 371.315 274.698 339.346 292.742 371.315 310.788 339.346 328.835 371.315 346.884 339.346 364.933 371.315 382.981 339.346 401.031 371.315 419.083 339.346 437.135"></polyline>
                <polyline id="Shape" stroke="#333333" stroke-width="1.881" points="19.023 58.515 373.195 0.397 477.88 58.515"></polyline>
                <polygon id="Shape" stroke="#458FA3" stroke-width="3.761" points="477.88 58.515 477.88 94.246 0.217 94.246 19.023 58.515"></polygon>
                <polyline id="Shape" stroke="#458FA3" stroke-width="3.384" points="477.877 91.656 477.209 90.842 453.401 61.915 452.734 61.108 452.066 61.915 428.259 90.842 427.591 91.656 426.923 90.842 403.115 61.915 402.447 61.108 401.78 61.915 377.973 90.842 377.305 91.656 376.637 90.842 352.829 61.915 352.161 61.108 351.494 61.915 327.686 90.842 327.019 91.656 326.351 90.842 302.543 61.915 301.875 61.108 301.208 61.915 277.409 90.842 276.741 91.656 276.074 90.842 252.275 61.915 251.607 61.108 250.94 61.915 227.132 90.842 226.465 91.656 225.797 90.842 201.989 61.915 201.321 61.108 200.654 61.915 176.855 90.842 176.188 91.656 175.521 90.842 151.713 61.915 151.045 61.108 150.377 61.915 126.578 90.842 125.911 91.656 125.243 90.842 101.436 61.915 100.768 61.108 100.1 61.915 76.292 90.842 75.625 91.656 74.957 90.842 51.159 61.915 50.491 61.108 49.823 61.915 26.025 90.842 25.357 91.656 24.689 90.842 11.018 74.231"></polyline>
                <polygon id="Shape" fill="#666666" fill-rule="nonzero" points="423.188 95.97 474.589 95.97 474.589 124.805 423.188 124.805"></polygon>
                <polygon id="Shape" fill="#4D4D4D" fill-rule="nonzero" points="474.589 124.805 423.188 124.805 474.589 95.97"></polygon>
                <path d="M335.584,102.398999 L335.584,159.126 L297.662,159.126 L297.662,120.133 C297.662,112.178 302.899,105.445 310.111,103.198 C311.822563,102.667848 313.604211,102.398494 315.396,102.399 L335.584,102.398999 Z" id="Shape" fill="#408496" fill-rule="nonzero"></path>
                <polygon id="Shape" fill="#5EC3DE" fill-rule="nonzero" points="316.623 115.873 327.856 115.873 327.856 145.648 316.623 145.648"></polygon>
                <path d="M310.111,103.198 L310.111,159.126 L297.662,159.126 L297.662,120.133 C297.662,112.178 302.899,105.445 310.111,103.198 Z" id="Shape" fill="#346B7A" fill-rule="nonzero"></path>
                <circle id="Oval" fill="#4D4D4D" fill-rule="nonzero" cx="373.196" cy="6.957" r="6.559"></circle>
                <g transform="translate(141.000000, 96.000000)">
                    <path d="M41.583,9.988 L41.583,33.036 M2.815,9.988 L2.815,33.036" id="Shape" stroke="#434343" stroke-width="1.881"></path>
                    <polygon id="Shape" fill="#408496" fill-rule="nonzero" points="0.573 0.126 43.826 0.126 43.826 10.469 0.573 10.469"></polygon>
                    <polygon id="Shape" fill="#346B7A" fill-rule="nonzero" points="43.826 10.47 0.573 10.47 43.826 0.126"></polygon>
                    <path d="M22.199,48.708 L22.199,55.76 L25.882,55.76 C27.9162266,55.7599999 29.5654478,57.4087735 29.566,59.443 L29.566,63.243 C29.5328695,65.2536808 27.8934537,66.8663061 25.8825,66.8663061 C23.8715463,66.8663061 22.2321305,65.2536808 22.199,63.243 L22.199,60.697" id="Shape" stroke="#434343" stroke-width="1.881"></path>
                    <path d="M0.573,33.036 L0.573,43.379 L13.579,49.882 C16.2554313,51.2202073 19.2066626,51.9169307 22.199,51.917 L22.199,33.036 L0.573,33.036 Z" id="Shape" fill="#346B7A" fill-rule="nonzero"></path>
                    <path d="M22.199,33.036 L22.199,51.917 C25.1916582,51.9169394 28.1432162,51.2202197 30.82,49.882 L43.826,43.379 L43.826,33.036 L22.199,33.036 Z" id="Shape" fill="#408496" fill-rule="nonzero"></path>
                    <path d="M5.666,36.641 C6.16495355,36.6407345 6.64354752,36.8388255 6.99636101,37.191639 C7.34917451,37.5444525 7.54726547,38.0230464 7.547,38.522 L7.547,40.597 C7.547,41.6358476 6.70484761,42.478 5.666,42.478 C4.62715239,42.478 3.785,41.6358476 3.785,40.597 L3.785,38.522 C3.785,37.483 4.628,36.641 5.666,36.641 Z M38.732,36.641 C39.2309536,36.6407345 39.7095475,36.8388255 40.062361,37.191639 C40.4151745,37.5444525 40.6132655,38.0230464 40.613,38.522 L40.613,40.597 C40.613,41.6355715 39.7710715,42.4775 38.7325,42.4775 C37.6939285,42.4775 36.852,41.6355715 36.852,40.597 L36.852,38.522 C36.8519999,37.4835428 37.6935429,36.6415521 38.732,36.641 Z" id="Shape" fill="#000000" fill-rule="nonzero"></path>
                    <circle id="Oval" fill="#ED4B00" fill-rule="nonzero" cx="5.656" cy="13.467" r="2.841"></circle>
                    <circle id="Oval" fill="#434343" fill-rule="nonzero" cx="5.656" cy="13.467" r="1.887"></circle>
                    <circle id="Oval" fill="#ED4B00" fill-rule="nonzero" cx="38.743" cy="13.467" r="2.84"></circle>
                    <circle id="Oval" fill="#434343" fill-rule="nonzero" cx="38.743" cy="13.467" r="1.887"></circle>
                    <circle id="Oval" fill="#ED4B00" fill-rule="nonzero" cx="5.656" cy="30.196" r="2.841"></circle>
                    <circle id="Oval" fill="#434343" fill-rule="nonzero" cx="5.656" cy="30.196" r="1.887"></circle>
                    <circle id="Oval" fill="#ED4B00" fill-rule="nonzero" cx="38.743" cy="30.196" r="2.84"></circle>
                    <circle id="Oval" fill="#434343" fill-rule="nonzero" cx="38.743" cy="30.196" r="1.887"></circle>
                </g>
                <polygon id="Shape" fill="#434343" fill-rule="nonzero" points="390.834 437.135 319.827 437.135 316.152 456.567 394.509 456.567"></polygon>
            </g>
            <g id="Group" transform="translate(378.000000, 189.000000)">
                <polygon id="Shape" fill="#87A79A" fill-rule="nonzero" points="0.945 25.878 44.852 25.878 44.852 70.482 0.945 70.482"></polygon>
                <path d="M12.444,37.559 L21.135,37.559 L21.135,58.801 L12.444,58.801 L12.444,37.559 Z M25.612,37.559 L34.303,37.559 L34.303,58.801 L25.612,58.801 L25.612,37.559 Z" id="Shape" fill="#525252" fill-rule="nonzero"></path>
                <polyline id="Shape" stroke="#525252" stroke-width="0.94" points="0.945 25.878 24.882 0.926 44.853 25.878"></polyline>
            </g>
        </g>
    </g>
</svg>