<svg viewBox="0 0 420 66.5" id="logo">
    <path fill="#A2B730" d="M19 63.5h18v-47h15v-13H19zM3 3.5h11v13H3zM58 3.5h18v60H58zM81 3.522h8.035c4.969 0 8.783 1.431 11.443 4.294 2.66 2.863 3.99 6.408 3.99 10.634 0 3.544-.949 6.584-2.848 9.12-1.266 1.691-3.117 3.026-5.555 4.008 3.703 1.037 6.428 2.815 8.174 5.337 1.746 2.522 2.619 5.691 2.619 9.509 0 3.108-.621 5.903-1.863 8.383-1.243 2.481-2.941 4.444-5.098 5.89-1.336.899-3.352 1.554-6.047 1.963-3.586.545-5.965.818-7.137.818H81V3.522z"></path>
    <g fill="#363636">
      <path d="M114.77 3.605h11.83c2.332 0 4.216.316 5.651.949s2.622 1.541 3.56 2.725 1.617 2.561 2.039 4.131.633 3.234.633 4.992c0 2.754-.313 4.89-.94 6.407s-1.497 2.789-2.61 3.814-2.309 1.708-3.586 2.048c-1.746.469-3.328.703-4.746.703h-11.83V3.605zm7.962 5.836v14.08h1.951c1.664 0 2.848-.185 3.551-.554s1.254-1.014 1.652-1.934.598-2.411.598-4.474c0-2.73-.445-4.6-1.336-5.607s-2.367-1.512-4.43-1.512h-1.986zM143.008 3.605h21.34v5.502h-13.359v4.096h12.393v5.256h-12.393v5.08h13.746v5.836h-21.727V3.605zM166.853 3.605h8.324l5.8 18.545 5.726-18.545h8.082l-9.568 25.77h-8.631l-9.733-25.77zM197.729 3.605h21.34v5.502H205.71v4.096h12.393v5.256H205.71v5.08h13.746v5.836h-21.727V3.605zM224.104 3.605h7.963v19.424h12.428v6.346h-20.391V3.605zM246.858 16.508c0-4.207 1.172-7.482 3.516-9.826s5.607-3.516 9.791-3.516c4.289 0 7.594 1.151 9.914 3.454s3.48 5.528 3.48 9.677c0 3.012-.507 5.481-1.521 7.409s-2.479 3.428-4.395 4.5-4.304 1.608-7.163 1.608c-2.906 0-5.312-.463-7.216-1.389s-3.448-2.391-4.632-4.395-1.774-4.51-1.774-7.522zm7.963.035c0 2.602.483 4.471 1.45 5.607s2.282 1.705 3.946 1.705c1.711 0 3.035-.557 3.973-1.67s1.406-3.111 1.406-5.994c0-2.426-.489-4.198-1.468-5.317s-2.306-1.679-3.981-1.679c-1.605 0-2.895.568-3.867 1.705s-1.459 3.018-1.459 5.643zM278.174 3.605h13.236c2.883 0 5.042.686 6.478 2.057s2.153 3.322 2.153 5.854c0 2.602-.782 4.635-2.347 6.1s-3.952 2.197-7.163 2.197h-4.359v9.562h-7.998V3.605zm7.998 10.987h1.951c1.535 0 2.613-.267 3.234-.8s.932-1.216.932-2.048c0-.809-.27-1.494-.809-2.057s-1.553-.844-3.041-.844h-2.268v5.749zM304.479 3.605h10.473l4.039 15.68L323 3.605h10.465v25.77h-6.521V9.723l-5.024 19.652h-5.903L311 9.723v19.652h-6.521V3.605zM338.888 3.605h21.34v5.502h-13.359v4.096h12.393v5.256h-12.393v5.08h13.746v5.836h-21.727V3.605zM365.316 3.605h7.436l9.703 14.257V3.605h7.506v25.77h-7.506l-9.65-14.149v14.149h-7.488V3.605zM393.801 3.605h24.205v6.363h-8.121v19.406h-7.963V9.969h-8.121V3.605z"></path>
    </g>
    <g fill="#363636">
      <path d="M135.843 50.967l5.59 1.248c-.293 1.031-.574 1.857-.844 2.479s-.65 1.354-1.143 2.197l2.689 1.846c.328.211.75.463 1.266.756l-3.85 4.43c-.703-.375-1.433-.809-2.188-1.301s-1.433-.914-2.03-1.266c-1.242.82-2.484 1.418-3.727 1.793-1.723.516-3.68.773-5.871.773-3.434 0-5.988-.715-7.664-2.145s-2.514-3.164-2.514-5.203c0-1.465.492-2.851 1.477-4.157s2.596-2.411 4.834-3.313c-.938-1.137-1.582-2.124-1.934-2.962s-.527-1.69-.527-2.558c0-1.828.697-3.334 2.092-4.518s3.51-1.775 6.346-1.775c2.895 0 5.021.562 6.381 1.688s2.039 2.473 2.039 4.043c0 .879-.208 1.723-.624 2.531s-.917 1.465-1.503 1.969-1.635 1.254-3.146 2.25a45.76 45.76 0 0 0 3.92 3.498c.363-.727.673-1.495.931-2.303zm-10.775 1.74c-.984.691-1.638 1.283-1.96 1.775s-.483 1.014-.483 1.564c0 .855.369 1.617 1.107 2.285s1.699 1.002 2.883 1.002c1.277 0 2.713-.498 4.307-1.494-1.524-1.171-3.475-2.882-5.854-5.132zm2.549-6.258c.926-.504 1.641-1.052 2.145-1.644s.756-1.151.756-1.679c0-.551-.211-1.017-.633-1.397s-1.002-.571-1.74-.571c-.727 0-1.318.211-1.775.633s-.686.92-.686 1.494c-.001.727.644 1.781 1.933 3.164zM159.117 37.73h7.98V63.5h-7.98V37.73zM172.503 37.73h7.436l9.703 14.257V37.73h7.506V63.5h-7.506l-9.65-14.149V63.5h-7.488V37.73zM199.548 37.73h8.324l5.8 18.545 5.726-18.545h8.082l-9.568 25.77h-8.631l-9.733-25.77zM229.704 37.73h21.34v5.502h-13.359v4.096h12.393v5.256h-12.393v5.08h13.746V63.5h-21.727V37.73zM253.97 54.975l7.576-.475c.164 1.23.498 2.168 1.002 2.812.82 1.043 1.992 1.564 3.516 1.564 1.137 0 2.013-.267 2.628-.8s.923-1.151.923-1.854c0-.668-.293-1.266-.879-1.793s-1.945-1.025-4.078-1.494c-3.492-.785-5.982-1.828-7.471-3.129-1.5-1.301-2.25-2.959-2.25-4.975 0-1.324.384-2.575 1.151-3.753s1.922-2.104 3.463-2.777 3.653-1.011 6.337-1.011c3.293 0 5.804.612 7.532 1.837s2.757 3.173 3.085 5.845l-7.505.44c-.199-1.16-.618-2.004-1.257-2.531s-1.521-.791-2.646-.791c-.926 0-1.623.196-2.092.589s-.703.87-.703 1.433c0 .41.193.779.58 1.107.375.34 1.266.656 2.672.949 3.48.75 5.974 1.509 7.479 2.276s2.602 1.72 3.287 2.856 1.028 2.408 1.028 3.814c0 1.652-.457 3.176-1.371 4.57s-2.191 2.452-3.832 3.173-3.709 1.081-6.205 1.081c-4.383 0-7.418-.844-9.105-2.531s-2.642-3.831-2.865-6.432zM279.187 37.73h24.205v6.363h-8.121V63.5h-7.963V44.094h-8.121V37.73zM306.547 37.73h10.473l4.039 15.68 4.01-15.68h10.465V63.5h-6.521V43.848L323.987 63.5h-5.903l-5.016-19.652V63.5h-6.521V37.73zM340.236 37.73h21.34v5.502h-13.359v4.096h12.393v5.256h-12.393v5.08h13.746V63.5h-21.727V37.73zM365.944 37.73h7.436l9.703 14.257V37.73h7.506V63.5h-7.506l-9.65-14.149V63.5h-7.488V37.73zM393.709 37.73h24.205v6.363h-8.121V63.5h-7.963V44.094h-8.121V37.73z"></path>
    </g>
  </svg>