<?xml version="1.0" encoding="UTF-8"?>
<svg width="745px" height="674px" viewBox="0 0 745 674" version="1.1" xmlns="http://www.w3.org/2000/svg" xmlns:xlink="http://www.w3.org/1999/xlink">
    <!-- Generator: Sketch 51.3 (57544) - http://www.bohemiancoding.com/sketch -->
    <title>marketing</title>
    <desc>Created with Sketch.</desc>
    <defs></defs>
    <g id="Page-1" stroke="none" stroke-width="1" fill="none" fill-rule="evenodd">
        <g id="marketing" fill-rule="nonzero">
            <path d="M78.092,582.069 C78.092,582.069 99.129,608.673 118.19,630.86 C137.251,653.048 163.633,673.111 163.633,673.111 C163.633,673.111 173.908,670.325 191.485,662.211 C209.063,654.097 210.83,650.191 210.83,650.191 C210.83,650.191 205.661,628.992 192.293,628.293 C190.262,619.949 186.153,609.447 175.646,609.114 C174.732,599.837 167.651,581.112 154.171,578.235 C154.803,567.858 149.4,559.102 149.4,559.102 L78.092,582.069 Z" id="Shape" fill="#154D61"></path>
            <path d="M171.729,555.551 L183.83,582.688 C183.83,582.688 180.73,586.124 175.979,587.243 C171.229,588.361 160.766,576.15 157.906,570.103 C155.046,564.058 152.434,556.123 152.434,556.123 L171.729,555.551 Z M8.099,523.578 C8.099,523.578 7.541,527.624 8.814,535.454 C1.064,542.164 -2.024,553.267 1.925,563.359 C5.875,573.449 15.68,579.508 25.925,579.174 C30.306,585.786 33.462,588.379 33.462,588.379 L56.623,585.345 L41.894,547.714 L27.166,510.085 L8.099,523.578 Z" id="Shape" fill="#154D61"></path>
            <path d="M163.959,411.999 C138.7,453.483 87.501,477.328 63.79,487.751 C40.078,498.173 33.031,498.647 27.978,505.194 C22.926,511.739 37.986,549.245 37.986,549.245 C37.986,549.245 52.386,587.009 60.538,588.387 C68.691,589.763 74.189,585.328 98.675,576.886 C123.162,568.444 176.945,551.2 223.652,564.518 C270.361,577.835 294.261,586.373 294.261,586.373 L247.615,467.197 L200.971,348.021 C200.973,348.021 189.219,370.515 163.959,411.999 Z" id="Shape" fill="#EF7C6D"></path>
            <path d="M142.155,506.571 C103.506,521.696 70.89,543.991 46.865,569.658 C51.353,578.813 56.655,587.729 60.539,588.387 C68.692,589.763 74.19,585.328 98.676,576.886 C123.163,568.444 176.946,551.2 223.653,564.518 C270.362,577.835 294.262,586.373 294.262,586.373 L255.87,488.285 C220.572,485.575 181.142,491.312 142.155,506.571 Z" id="Shape" fill="#EB5B49"></path>
            <path d="M315.954,557.425 C318.591,571.22 314.814,581.186 303.65,585.556 C292.486,589.924 282.786,585.539 275.521,573.25 C275.521,573.25 265.344,562.919 230.5,473.896 C195.658,384.875 196.119,370.378 196.119,370.378 C195.547,356.23 197.258,346.619 208.423,342.25 C219.588,337.88 227.679,342.074 236.552,354.553 C236.552,354.553 249.515,371.999 281.572,453.907 C313.631,535.815 315.954,557.425 315.954,557.425 Z" id="Shape" fill="#154D61"></path>
            <path d="M277.67,455.434 C301.245,515.668 309.539,568.73 309.539,568.73 C309.539,568.73 279.609,524.135 256.037,463.902 C232.461,403.671 224.168,350.608 224.168,350.608 C224.168,350.608 254.098,395.201 277.67,455.434 Z" id="Shape" fill="#FFFFFF"></path>
            <circle id="Oval" fill="#FFFFFF" cx="531.513" cy="412.63" r="30.932"></circle>
            <path d="M557.424,382.923 C541.018,368.612 516.115,370.311 501.805,386.718 C487.494,403.124 489.194,428.027 505.6,442.337 C520.889,455.673 543.549,455.1 558.147,441.685 L569.149,451.281 L566.264,454.588 L605.321,488.655 L608.206,485.348 L613.974,478.735 L616.859,475.429 L577.802,441.361 L574.917,444.668 L563.915,435.073 C575.223,418.786 572.713,396.259 557.424,382.923 Z M511.18,435.94 C498.305,424.711 496.973,405.17 508.201,392.297 C519.431,379.423 538.971,378.089 551.846,389.318 C564.719,400.547 566.051,420.088 554.823,432.962 C543.594,445.836 524.053,447.169 511.18,435.94 Z" id="Shape" fill="#154D61"></path>
            <path d="M487.408,282.368 C486.217045,284.456445 483.558788,285.184354 481.47,283.994 L448.182,265.033 C446.094386,263.842442 445.366172,261.185599 446.555,259.097 L483.835,193.648 C484.406372,192.645044 485.352784,191.910162 486.466016,191.605036 C487.579247,191.29991 488.768096,191.449538 489.771,192.021 L523.058,210.982 C524.06211,211.552511 524.798215,212.498811 525.104143,213.61242 C525.410072,214.72603 525.260723,215.91558 524.689,216.919 L487.408,282.368 Z" id="Shape" fill="#000000"></path>
            <path d="M499.328,202.5 L509.159,208.1 L508.729,208.855 L498.898,203.255 L499.328,202.5 Z M485.372,199.143 L519.163,218.393 L487.986,273.12 L454.196,253.87 L485.372,199.143 Z" id="Shape" fill="#154D61"></path>
            <path d="M591.14,292.16 L591.14,236.062 C585.433,236.185 580.508,237.037 574.943,238.846 C560.416,243.566 548.597,253.66 541.663,267.27 C534.952,280.44 533.594,295.379 537.791,309.495 L591.14,292.16 Z" id="Shape" fill="#80D7DC"></path>
            <path d="M617.99,303.025 L592.613,294.779 L538.698,312.299 C544.778,329.684 557.285,341.877 574.942,347.615 C580.65182,349.476584 586.619375,350.426574 592.625,350.43 C616.974,350.43 638.451,335.168 646.525,312.297 L617.99,303.025 Z" id="Shape" fill="#EB5B49"></path>
            <path d="M627.407,247.849 L594.998,292.455 L647.437,309.495 C654.332,286.393 646.565,262.484 627.407,247.849 Z" id="Shape" fill="#1D1D1B"></path>
            <path d="M594.087,288.696 L625.024,246.114 C615.537,239.531 605.633,236.312 594.087,236.062 L594.087,288.696 Z" id="Shape" fill="#154D61"></path>
            <path d="M344.532,295.284 C331.69,295.284 321.244,284.835 321.244,271.992 C321.244,259.152 331.69,248.705 344.532,248.705 C357.376,248.705 367.821,259.152 367.821,271.992 C367.821,284.835 357.376,295.284 344.532,295.284 Z M364.173,275.183 C363.493,274.967 358.017,273.333 351.782,274.331 C354.385,281.48 355.444,287.304 355.646,288.516 C360.108,285.498 363.285,280.718 364.173,275.183 Z M352.303,290.336 C352.007,288.589 350.853,282.507 348.057,275.252 L347.928,275.296 C336.707,279.205 332.681,286.986 332.321,287.717 C335.807668,290.442026 340.106777,291.920362 344.532,291.916 C347.202497,291.919966 349.846078,291.382473 352.303,290.336 Z M329.753,285.326 C330.205,284.555 335.664,275.515 345.924,272.2 C346.18,272.114 346.445,272.036 346.706,271.962 C346.200597,270.822025 345.663049,269.696575 345.094,268.587 C335.16,271.561 325.521,271.436 324.651,271.418 C324.645,271.621 324.638,271.822 324.638,272.026 C324.638,277.134 326.575,281.798 329.753,285.326 Z M325.06,267.951 C325.949,267.962 334.145,267.999 343.45,265.529 C340.154,259.668 336.6,254.742 336.074,254.024 C330.509,256.646 326.35,261.777 325.06,267.951 Z M339.87,252.686 C340.421,253.421 344.033,258.342 347.293,264.329 C354.368,261.68 357.361,257.654 357.721,257.144 C354.088283,253.912749 349.394852,252.129046 344.533,252.132 C342.928,252.132 341.366,252.323 339.87,252.686 Z M359.932,259.445 C359.51,260.012 356.178,264.285 348.823,267.287 C349.449466,268.570114 350.032793,269.873844 350.572,271.196 C357.191,270.364 363.768,271.698 364.425,271.836 C364.384512,267.314093 362.799164,262.941949 359.932,259.445 Z" id="Shape" fill="#000000"></path>
            <g id="Group" transform="translate(535.000000, 107.000000)">
                <circle id="Oval" fill="#EB5B49" cx="44.458" cy="44.253" r="43.783"></circle>
                <path d="M25.89,19.271 L63.03,19.271 C66.558,19.271 69.443,22.157 69.443,25.685 L69.443,62.825 C69.443,66.352 66.558,69.236 63.03,69.236 L25.89,69.236 C22.363,69.236 19.475,66.352 19.475,62.825 L19.475,25.685 C19.475,22.156 22.362,19.271 25.89,19.271 Z M55.876,24.82 C54.6341766,24.8238485 53.6287451,25.8301737 53.626,27.072 L53.626,32.454 C53.6287475,33.695663 54.6343383,34.7017007 55.876,34.705 L61.522,34.705 C62.7634342,34.7011541 63.7687057,33.6954358 63.772,32.454 L63.772,27.072 C63.7681631,25.8306273 62.7633688,24.8249398 61.522,24.82 L55.876,24.82 Z M63.794,40.4 L59.398,40.4 C59.814,41.761 60.042,43.197 60.042,44.691 C60.042,53 53.086,59.738 44.508,59.738 C35.932,59.738 28.974,53 28.974,44.691 C28.974,43.198 29.203,41.762 29.619,40.4 L25.03,40.4 L25.03,61.509 C25.03,62.602 25.923,63.491 27.016,63.491 L61.811,63.491 C62.9057243,63.4904498 63.7933456,62.6037232 63.795,61.509 L63.795,40.4 L63.794,40.4 Z M44.507,34.422 C38.965,34.422 34.472,38.773 34.472,44.147 C34.472,49.514 38.965,53.87 44.507,53.87 C50.049,53.87 54.542,49.515 54.542,44.147 C54.542,38.773 50.049,34.422 44.507,34.422 Z" id="Shape" fill="#FFFFFF"></path>
            </g>
            <g id="Group" transform="translate(571.000000, 559.000000)">
                <circle id="Oval" fill="#EB5B49" cx="44.368" cy="43.967" r="43.783"></circle>
                <g transform="translate(18.000000, 18.000000)" fill="#FFFFFF" id="Shape">
                    <path d="M37.946,47.982 C37.368,48.785 36.605,49.367 35.771,49.761 L33.51,28.491 L52.156,26.708 C52.0984227,27.7692562 51.7397644,28.7921608 51.122,29.657 L37.946,47.982 Z M26.062,26.73 L52.611,24.191 C52.204,23.343 51.616,22.58 50.803,21.996 L22.681,1.773 C21.868,1.187 20.952,0.871 20.023,0.757 L26.062,26.73 Z"></path>
                    <path d="M31.229,29.137 L25.082,29.727 C24.7339552,29.7594519 24.3859888,29.6641965 24.103,29.459 C23.8196921,29.2556454 23.6196773,28.9565114 23.54,28.617 L22.143,22.601 L0.509,27.398 C0.910685822,28.3977667 1.58750724,29.2632105 2.461,29.894 L30.583,50.117 C31.493,50.771 32.531,51.109 33.571,51.174 L31.229,29.137 Z M17.145,1.125 C16.135517,1.52851794 15.2615474,2.21069979 14.625,3.092 L1.145,21.838 C0.580789464,22.6314064 0.229278716,23.5561448 0.124,24.524 L21.485,19.79 L17.145,1.125 Z"></path>
                </g>
            </g>
            <path d="M486.416,114.091 L488.301,104.794 L488.612,103.265 L487.052,103.22 C486.24656,103.19573 485.440805,103.183396 484.635,103.183 C475.846,103.183 472.482,104.812 470.131,107.258 C467.513,109.995 465.688,114.4 465.688,117.967 C465.688,121.944 469.129,124.828 473.875,124.828 C476.981,124.828 478.758,123.98 480.751,122.638 C482.497,124.046 483.95,124.828 487.088,124.828 C491.28,124.828 494.734,122.92 497.075,119.305 C498.835,116.594 499.882,112.915 499.882,109.464 C499.882,102.009 495.96,97.622 492.672,95.255 C488.984,92.601 483.96,91.017 479.236,91.017 C469.741,91.017 463.984,95.663 460.825,99.561 C457.005,104.279 454.813,110.583 454.813,116.861 C454.813,122.942 457.173,127.966 461.64,131.394 C465.401,134.275 470.442,135.861 475.837,135.861 C482.422,135.861 489.063,134.167 495.037,130.961 L496.13,130.374 L495.605,129.246 L493.791,125.363 L493.21,124.112 L491.987,124.757 C487.468,127.143 482.431,129.353 476.214,129.353 C472.112,129.353 468.693,128.209 466.329,126.045 C463.973,123.888 462.725,120.756 462.725,116.983 C462.725,104.211 470.802,97.527 478.78,97.527 C482.705,97.527 486.028,98.693 488.39,100.9 C490.73,103.088 491.967,106.156 491.967,109.771 C491.967,111.143 491.667,113.415 490.833,115.302 C489.945,117.304 488.712,118.321 487.164,118.321 C486.262,118.321 485.91,117.997 485.91,117.168 C485.91,116.643 486.163,115.377 486.312,114.619 L486.416,114.091 M479.474,110.006 C477.811,116.867 475.72,118.32 474.251,118.32 C474.04,118.32 473.601,118.32 473.601,117.66 C473.601,115.701 474.95,112.774 476.608,111.139 C477.263,110.483 478.331,110.2 479.474,110.006" id="Shape" fill="#000000"></path>
            <path d="M452.233,325.927 C443.521,318.794 430.68,320.076 423.549,328.786 C416.419,337.494 415.588,370.686 415.588,370.686 C415.588,370.686 447.963,363.319 455.092,354.611 C462.224,345.901 460.944,333.059 452.233,325.927 Z M437.23,344.252 C435.455759,342.825007 434.583619,340.555745 434.945478,338.30779 C435.307336,336.059836 436.847544,334.178895 438.979968,333.380767 C441.112392,332.582639 443.509095,332.990066 445.258,334.448 C447.929155,336.674746 448.306341,340.638296 446.103139,343.328903 C443.899937,346.01951 439.939852,346.431489 437.23,344.252 Z" id="Shape" fill="#154D61"></path>
            <path d="M686.992,322.691 C692.231,317.452 700.235,316.706 706.289,320.404 C704.24,322.436 701.873,324.806 701.873,324.806 C700.219,326.795 702.078,327.938 703.02,327.909 L714.083,327.907 C714.667,327.907 715.143,327.909 715.143,327.909 L718.355,327.909 C718.94,327.909 719.417,327.431 719.419,326.844 L719.419,311.635 C719.488,310.245 717.956,308.894 716.383,310.448 C716.383,310.448 713.769,312.99 711.97,314.777 C702.751,308.042 689.757,308.807 681.435,317.135 C676.577,321.993 674.312,328.438 674.58,334.801 L682.449,334.801 C682.174,330.455 683.665,326.018 686.992,322.691 Z M713.162,332.158 C713.441,336.507 711.95,340.944 708.624,344.271 C703.384,349.508 695.374,350.256 689.323,346.555 C691.375,344.527 693.741,342.155 693.741,342.155 C695.396,340.171 693.538,339.022 692.59,339.051 L681.531,339.056 C680.948,339.056 680.469,339.051 680.469,339.051 L677.254,339.051 C676.67,339.051 676.192,339.531 676.192,340.117 L676.192,355.325 C676.127,356.712 677.652,358.062 679.229,356.508 C679.229,356.508 681.837,353.966 683.642,352.184 C692.865,358.92 705.854,358.158 714.178,349.83 C719.034,344.969 721.299,338.527 721.033,332.161 L713.161,332.161 L713.161,332.158 L713.162,332.158 Z" id="Shape" fill="#000000"></path>
            <path d="M715.165,88.939 L679.574,65.892 C678.121653,64.9515504 676.355125,64.6267529 674.663243,64.9890981 C672.971361,65.3514433 671.492799,66.3712317 670.553,67.824 L658.145,86.985 C656.18748,90.0090229 657.050441,94.0472192 660.073,96.007 L662.813,97.78 L656.609,107.36 C656.372339,107.722958 656.290943,108.165595 656.383,108.589 C656.472942,109.012297 656.727616,109.38241 657.090827,109.617671 C657.454037,109.852932 657.895931,109.934005 658.319,109.843 L676.501,106.643 L695.665,119.054 C698.689911,121.010365 702.727859,120.146114 704.687,117.123 L717.095,97.961 C719.052729,94.936565 718.188748,90.8977898 715.165,88.939 M678.361,76.765 L700.264,90.949 C700.989093,91.4509562 701.184263,92.4381469 700.70473,93.1782602 C700.225197,93.9183736 699.244441,94.1436605 698.49,93.687 L676.588,79.503 C676.225117,79.2680311 675.970593,78.898377 675.880549,78.4755459 C675.790505,78.0527147 675.872337,77.611432 676.108,77.249 C676.342144,76.8855284 676.71133,76.6302003 677.134046,76.5393905 C677.556761,76.4485808 677.998238,76.5297585 678.361,76.765 M680.45,97.544 L669.499,90.452 C669.136282,90.2171796 668.881718,89.8478717 668.791323,89.4253394 C668.700928,89.0028072 668.782108,88.5616713 669.017,88.199 C669.251482,87.8359055 669.62073,87.5809598 670.043354,87.4903574 C670.465977,87.399755 670.907283,87.4809336 671.27,87.716 L682.223,94.808 C682.711739,95.1247159 682.994387,95.6781129 682.964473,96.2597316 C682.934559,96.8413502 682.596627,97.3628289 682.077973,97.6277316 C681.559319,97.8926343 680.938739,97.860716 680.45,97.544 M700.42,102.706 L673.043,84.978 C672.680214,84.7426843 672.425876,84.3727814 672.336027,83.9497991 C672.246179,83.5268168 672.328193,83.0854667 672.564,82.723 C672.79882,82.3602822 673.168128,82.1057184 673.590661,82.0153231 C674.013193,81.9249278 674.454329,82.0061078 674.817,82.241 L702.194,99.969 C702.953,100.461 703.168,101.467 702.678,102.223 C702.443116,102.587068 702.072951,102.842644 701.649273,102.933271 C701.225595,103.023898 700.783268,102.94212 700.42,102.706" id="Shape" fill="#154D61"></path>
            <g id="Group" transform="translate(646.000000, 487.000000)" fill="#FFFFFF">
                <path d="M5.727,46.132 L3.779,48.141 L8.01,52.248 L9.961,50.244 C11.8428362,51.4973829 13.9670777,52.3412877 16.196,52.721 L16.238,55.516 L22.135,55.431 L22.095,52.633 C24.3120975,52.1901736 26.4110179,51.2851845 28.255,49.977 L30.263,51.922 L34.371,47.69 L32.365,45.743 C33.6184365,43.8611334 34.4614039,41.7363376 34.839,39.507 L37.638,39.465 L37.549,33.568 L34.753,33.607 C34.3110082,31.3899884 33.4066854,29.2910326 32.099,27.447 L34.046,25.44 L29.815,21.333 L27.865,23.337 C25.9833151,22.0832168 23.858443,21.2402192 21.629,20.863 L21.586,18.065 L15.69,18.15 L15.73,20.948 C13.5126326,21.3919352 11.4132821,22.2968159 9.568,23.604 L7.562,21.659 L3.453,25.891 L5.459,27.841 C4.20487911,29.7215109 3.36152157,31.8454089 2.984,34.074 L0.186,34.115 L0.271,40.015 L3.07,39.974 C3.5121573,42.1908637 4.41758631,44.2893326 5.727,46.132 M18.738,24.859 C25.325,24.761 30.745,30.024 30.842,36.615 C30.941,43.204 25.676,48.622 19.088,48.719 C12.498,48.817 7.079,43.554 6.982,36.963 C6.885,30.377 12.147,24.954 18.738,24.859 M52.047,11.299 L53.798,10.525 L51.875,6.196 L50.129,6.975 C49.3607941,5.92539738 48.4112011,5.02152301 47.325,4.306 L48.01,2.521 L43.593,0.822 L42.908,2.604 C41.6226067,2.40886486 40.3128659,2.44204 39.039,2.702 L38.261,0.954 L33.937,2.875 L34.712,4.623 C33.6610933,5.3898861 32.7575512,6.34051939 32.045,7.429 L30.26,6.742 L28.559,11.159 L30.343,11.843 C30.146196,13.1282117 30.1786985,14.4381303 30.439,15.712 L28.696,16.491 L30.614,20.815 L32.359,20.039 C33.1288405,21.0882159 34.0793393,21.9919854 35.166,22.708 L34.478,24.49 L38.896,26.192 L39.584,24.41 C40.865,24.602 42.181,24.57 43.451,24.312 L44.227,26.058 L48.553,24.136 L47.779,22.388 C48.8283966,21.6205915 49.7316895,20.6712364 50.446,19.585 L52.232,20.272 L53.932,15.858 L52.146,15.169 C52.346,13.875 52.311,12.577 52.047,11.299 M44.245,20.262 C42.4532214,21.0575828 40.4187646,21.1087006 38.5892925,20.4041053 C36.7598204,19.6995101 35.2852333,18.2969338 34.49,16.505 C32.836,12.782 34.519,8.403 38.245,6.751 C40.0364772,5.95293277 42.0718934,5.90054832 43.9020506,6.60540743 C45.7322078,7.31026654 47.2066568,8.71442583 48,10.508 C49.65,14.23 47.968,18.606 44.245,20.262" id="Shape"></path>
            </g>
            <g id="Group" transform="translate(451.000000, 497.000000)">
                <circle id="Oval" fill="#FFFFFF" cx="41.091" cy="41.137" r="40.614"></circle>
                <g transform="translate(21.000000, 17.000000)" fill="#154D61">
                    <circle id="Oval" cx="5.968" cy="38.298" r="5.861"></circle>
                    <path d="M0.114,23.524 C5.608,23.524 10.767,25.671 14.649,29.569 C18.533,33.471 20.67,38.67 20.67,44.203 L29.129,44.203 C29.129,28.137 16.113,15.064 0.113,15.064 L0.113,23.524 L0.114,23.524 Z" id="Shape"></path>
                    <path d="M0.125,8.525 C19.693,8.525 35.618,24.536 35.618,44.209 L44.074,44.209 C44.074,19.867 24.361,0.064 0.125,0.064 L0.125,8.525 Z" id="Shape"></path>
                </g>
            </g>
            <g id="Group" transform="translate(667.000000, 373.000000)">
                <circle id="Oval" fill="#80D7DC" cx="38.711" cy="38.797" r="38.684"></circle>
                <path d="M62.258,24.191 C60.4951899,24.9737258 58.6245414,25.486477 56.709,25.712 C58.7278435,24.5061993 60.2375302,22.605402 60.955,20.366 C59.0605305,21.4932821 56.9868304,22.2874507 54.824,22.714 C52.9967327,20.763052 50.4420304,19.6575231 47.769,19.661 C42.435,19.661 38.107,23.987 38.107,29.322 C38.107,30.081 38.193,30.817 38.357,31.522 C30.326,31.122 23.209,27.276 18.443,21.428 C17.5851271,22.9035119 17.1341155,24.580226 17.136,26.287 C17.1331681,29.5163191 18.7450171,32.5332351 21.431,34.326 C19.8978973,34.2784167 18.3984548,33.8645528 17.058,33.119 L17.058,33.24 C17.058,37.92 20.388,41.826 24.806,42.715 C23.3834908,43.1033818 21.8907798,43.1598331 20.443,42.88 C21.7082703,46.8146473 25.3336798,49.5107016 29.466,49.59 C26.0447244,52.2772273 21.8184323,53.7344843 17.468,53.727 C16.689,53.727 15.921,53.679 15.165,53.59 C19.5831693,56.4289352 24.7253583,57.9356257 29.977,57.93 C47.747,57.93 57.463,43.211 57.463,30.442 C57.463,30.024 57.453,29.608 57.438,29.19 C59.3288953,27.823253 60.9610802,26.1304539 62.258,24.191 Z" id="Shape" fill="#00B0BA"></path>
            </g>
            <g id="Group" transform="translate(658.000000, 179.000000)">
                <circle id="Oval" fill="#154D61" cx="40.623" cy="40.085" r="40"></circle>
                <path d="M45.275,27.658 C47.409341,28.9881671 48.8121393,31.2271853 49.078,33.728 C49.9504943,34.138602 50.9027182,34.3519903 51.867,34.353 C55.51,34.353 58.461,31.4 58.461,27.757 C58.4314445,24.1557572 55.5179907,21.2443394 51.9167282,21.2173012 C48.3154656,21.1902631 45.3586251,24.057607 45.275,27.658 M40.953,41.162 C44.596,41.162 47.551,38.209 47.551,34.567 C47.551,30.925 44.596,27.97 40.953,27.97 C37.3101298,27.97 34.357,30.9231298 34.357,34.566 C34.357,38.2088702 37.3101298,41.162 40.953,41.162 M43.75,41.612 L38.154,41.612 C33.498,41.612 29.711,45.4 29.711,50.056 L29.711,56.902 L29.727,57.009 L30.2,57.155 C34.643,58.544 38.505,59.007 41.682,59.007 C47.887,59.007 51.487,57.237 51.707,57.124 L52.148,56.901 L52.195,56.901 L52.195,50.055 C52.195,45.4 48.408,41.612 43.75,41.612 M54.662,34.803 L49.111,34.803 C49.0536035,36.947456 48.151483,38.9824386 46.601,40.465 C50.742,41.695 53.769,45.534 53.769,50.069 L53.769,52.178 C59.251,51.975 62.412,50.422 62.621,50.317 L63.062,50.092 L63.109,50.092 L63.109,43.248 C63.109,38.591 59.322,34.803 54.662,34.803 M29.381,34.354 C30.67,34.354 31.871,33.978 32.889,33.336 C33.2072296,31.2720775 34.3053966,29.4089877 35.957,28.131 C35.963,28.006 35.977,27.885 35.977,27.76 C35.977,24.1165775 33.0234225,21.163 29.38,21.163 C25.7365775,21.163 22.783,24.1165775 22.783,27.76 C22.7835304,29.509368 23.4789728,31.1868757 24.7163378,32.4234906 C25.9537028,33.6601055 27.631632,34.3545305 29.381,34.354 M35.305,40.465 C33.7632857,38.9896702 32.862637,36.9678789 32.797,34.835 C32.592,34.82 32.389,34.803 32.178,34.803 L26.58,34.803 C21.924,34.803 18.135,38.591 18.135,43.248 L18.135,50.092 L18.153,50.199 L18.624,50.347 C22.19,51.46 25.374,51.973 28.136,52.134 L28.136,50.068 C28.135,45.534 31.164,41.697 35.305,40.465" id="Shape" fill="#FFFFFF"></path>
            </g>
            <g id="Group" transform="translate(352.000000, 151.000000)">
                <circle id="Oval" fill="#154D61" cx="40.848" cy="40.253" r="40"></circle>
                <path d="M51.856,42.539 L53.05,33.278 L43.879,33.278 L43.879,27.365 C43.879,24.684 44.628,22.857 48.471,22.857 L53.371,22.855 L53.371,14.573 C52.525,14.461 49.617,14.208 46.227,14.208 C39.156,14.208 34.319,18.524 34.319,26.449 L34.319,33.278 L26.322,33.278 L26.322,42.539 L34.319,42.539 L34.319,66.298 L43.879,66.298 L43.879,42.539 L51.856,42.539 Z" id="Shape" fill="#FFFFFF"></path>
            </g>
            <g id="Group" transform="translate(537.000000, 0.000000)">
                <circle id="Oval" fill="#80D7DC" cx="42.459" cy="42.249" r="41.5"></circle>
                <polygon id="Shape" fill="#00B0BA" points="30.488 21.498 61.22 42.249 30.488 63"></polygon>
            </g>
            <path d="M400.74,418.181 C401.475833,420.346343 400.319806,422.698661 398.156,423.439 L325.752,448.122 C324.351519,448.599485 322.802685,448.293552 321.68893,447.319443 C320.575175,446.345333 320.065704,444.851038 320.35243,443.399443 C320.639156,441.947848 321.678519,440.759485 323.079,440.282 L395.483,415.597 C397.648157,414.860036 400.000995,416.016538 400.74,418.181 Z M347.148,334.173 C349.200277,335.182521 350.046274,337.664109 349.038,339.717 L315.295,408.367 C314.266183,410.3826 311.810108,411.199387 309.779086,410.201361 C307.748064,409.203336 306.893996,406.759974 307.861,404.714 L341.604,336.064 C342.61276,334.010895 345.09488,333.16427 347.148,334.173 Z M409.622,517.43 C410.106782,516.444493 410.180102,515.306742 409.825824,514.267163 C409.471545,513.227583 408.718705,512.37138 407.733,511.887 L339.082,478.143 C338.096292,477.658084 336.958245,477.584913 335.918553,477.939605 C334.878862,478.294296 334.02282,479.047753 333.539,480.034 C333.054246,481.019777 332.981046,482.157772 333.335509,483.197531 C333.689973,484.23729 334.44305,485.093599 335.429,485.578 L404.079,519.321 C406.131983,520.327268 408.61207,519.481184 409.622,517.43 Z" id="Shape" fill="#000000"></path>
        </g>
    </g>
</svg>