<?xml version="1.0" encoding="UTF-8"?>
<svg width="611px" height="413px" viewBox="0 0 611 413" version="1.1" xmlns="http://www.w3.org/2000/svg" xmlns:xlink="http://www.w3.org/1999/xlink">
    <!-- Generator: Sketch 51.3 (57544) - http://www.bohemiancoding.com/sketch -->
    <title>investments</title>
    <desc>Created with Sketch.</desc>
    <defs></defs>
    <g id="Page-1" stroke="none" stroke-width="1" fill="none" fill-rule="evenodd">
        <g id="investments">
            <path d="M598.21,131.119 L450.702,131.12 C450.981,132.3 452.411,133.226 454.203,133.373 L598.208,133.373 L598.21,131.119 Z" id="Shape" fill="#F9A818" fill-rule="nonzero"></path>
            <path d="M598.208,138.735 L598.208,133.373 L454.204,133.373 L454.207,133.374 C454.191,133.375 454.178,133.378 454.162,133.38 L454.212,133.382 C452.206,133.546 450.652,134.677 450.65,136.053 C450.654,137.429 452.208,138.56 454.212,138.723 L454.162,138.725 C454.178,138.726 454.191,138.731 454.207,138.732 L454.205,138.733 L598.208,138.733 L598.208,138.735 Z" id="Shape" fill="#F5E6B6" fill-rule="nonzero"></path>
            <path d="M454.205,138.735 C452.411,138.881 450.981,139.808 450.702,140.988 L598.209,140.988 L598.209,138.735 L454.205,138.735 Z" id="Shape" fill="#F9A818" fill-rule="nonzero"></path>
            <path d="M450.702,140.993 C450.976,139.811 452.407,138.882 454.205,138.735 L454.207,138.734 C454.191,138.733 454.178,138.728 454.162,138.727 L454.212,138.725 C452.207,138.562 450.653,137.431 450.65,136.055 C450.653,134.68 452.207,133.548 454.212,133.384 L454.162,133.382 C454.178,133.38 454.191,133.377 454.207,133.376 L454.204,133.375 C452.407,133.228 450.977,132.3 450.702,131.116 L441.253,136.056 L450.702,140.993 Z" id="Shape" fill="#F0B16C" fill-rule="nonzero"></path>
            <path d="M445.89,133.629 L441.252,136.054 L445.889,138.48 C446.172,137.698 446.328,136.89 446.327,136.054 C446.324965,135.226268 446.177035,134.405374 445.89,133.629 Z" id="Shape" fill="#103754" fill-rule="nonzero"></path>
            <polygon id="Shape" fill="#C62229" fill-rule="nonzero" points="598.265 131.119 602.738 131.119 602.738 133.373 598.265 133.373"></polygon>
            <polygon id="Shape" fill="#F85A68" fill-rule="nonzero" points="598.265 133.373 602.736 133.373 602.736 138.735 598.265 138.735"></polygon>
            <polygon id="Shape" fill="#C62229" fill-rule="nonzero" points="598.265 138.735 602.738 138.735 602.738 140.988 598.265 140.988"></polygon>
            <g id="Group" transform="translate(434.000000, 50.000000)" fill-rule="nonzero">
                <g transform="translate(0.000000, 25.000000)" fill="#50667E" id="Shape">
                    <path d="M172.233,27.609 C171.761,27.609 171.279,27.498 170.84,27.251 L146.091,13.953 C141.327178,11.3930105 136.265574,9.43084127 131.021,8.111 C125.776231,6.78641284 120.387448,6.11730756 114.978,6.119 L6.192,6.119 L6.192,0.22 L114.978,0.22 C120.868,0.22 126.748,0.955 132.462,2.389 C138.176067,3.83055306 143.690405,5.97173376 148.88,8.764 L173.63,22.062 C174.861256,22.0593864 175.964731,22.8215009 176.398274,23.9739063 C176.831817,25.1263116 176.504298,26.4267762 175.576631,27.236364 C174.648965,28.0459517 173.316143,28.19449 172.233,27.609 Z"></path>
                    <path d="M3.079,27.609 C3.55,27.609 4.03,27.498 4.475,27.251 L29.22,13.953 C33.9825026,11.3931952 39.0427605,9.43102692 44.286,8.111 C49.5311426,6.78659421 54.9202339,6.11749239 60.33,6.119 L169.12,6.119 L169.12,0.22 L60.33,0.22 C54.438,0.22 48.558,0.955 42.849,2.389 C37.1333871,3.83070756 31.6174131,5.97187141 26.426,8.764 L1.679,22.062 C0.990552478,22.4317671 0.477227243,23.0599164 0.251986765,23.8082174 C0.0267462868,24.5565184 0.108047773,25.363652 0.478,26.052 C0.99296003,27.0095783 1.99173843,27.607463 3.079,27.609 Z"></path>
                </g>
                <path d="M79.904,29.916 C79.904,25.642 83.382,22.171 87.653,22.171 C91.93,22.171 95.408,25.642 95.408,29.916 L101.302,29.916 C101.302,22.38 95.197,16.271 87.654,16.271 C80.119,16.271 74.01,22.38 74.01,29.916 L79.904,29.916 Z" id="Shape" fill="#20364D"></path>
                <path d="M74.009,39.146 C74.009,45.357 68.927,50.439 62.716,50.439 L23.378,50.439 C17.167,50.439 12.086,45.357 12.086,39.146 L12.086,17.939 C12.086,11.728 17.167,6.645 23.378,6.645 L62.716,6.645 C68.927,6.645 74.009,11.728 74.009,17.939 L74.009,39.146 Z" id="Shape" fill="#E1EFFA"></path>
                <path d="M62.716,6.645 L41.073,6.645 L41.073,50.439 L62.716,50.439 C68.927,50.439 74.009,45.357 74.009,39.146 L74.009,17.939 C74.009,11.728 68.927,6.645 62.716,6.645 Z" id="Shape" fill="#CEE2F2"></path>
                <path d="M163.051,39.146 C163.051,45.357 157.968,50.439 151.757,50.439 L112.419,50.439 C106.208,50.439 101.127,45.357 101.127,39.146 L101.127,17.939 C101.127,11.728 106.208,6.645 112.419,6.645 L151.757,6.645 C157.968,6.645 163.051,11.728 163.051,17.939 L163.051,39.146 Z" id="Shape" fill="#E1EFFA"></path>
                <path d="M151.757,6.645 L130.115,6.645 L130.115,50.439 L151.757,50.439 C157.968,50.439 163.051,45.357 163.051,39.146 L163.051,17.939 C163.051,11.728 157.968,6.645 151.757,6.645 Z" id="Shape" fill="#CEE2F2"></path>
                <path d="M65.645,0.897 L20.45,0.897 C12.607,0.897 6.192,7.314 6.192,15.154 L6.192,41.929 C6.192,49.771 12.607,56.187 20.45,56.187 L65.645,56.187 C73.488,56.187 79.904,49.771 79.904,41.929 L79.904,15.154 C79.904,7.313 73.488,0.897 65.645,0.897 Z M74.009,39.146 C74.009,45.357 68.927,50.439 62.716,50.439 L23.378,50.439 C17.167,50.439 12.086,45.357 12.086,39.146 L12.086,17.939 C12.086,11.728 17.167,6.645 23.378,6.645 L62.716,6.645 C68.927,6.645 74.009,11.728 74.009,17.939 L74.009,39.146 Z M154.687,0.897 L109.492,0.897 C101.649,0.897 95.233,7.314 95.233,15.154 L95.233,41.929 C95.233,49.771 101.649,56.187 109.492,56.187 L154.687,56.187 C162.53,56.187 168.945,49.771 168.945,41.929 L168.945,15.154 C168.945,7.313 162.53,0.897 154.687,0.897 Z M163.051,39.146 C163.051,45.357 157.968,50.439 151.757,50.439 L112.419,50.439 C106.208,50.439 101.127,45.357 101.127,39.146 L101.127,17.939 C101.127,11.728 106.208,6.645 112.419,6.645 L151.757,6.645 C157.968,6.645 163.051,11.728 163.051,17.939 L163.051,39.146 Z" id="Shape" fill="#2A445E"></path>
            </g>
            <g id="Group">
                <polygon id="Shape" fill="#EEEEEE" points="0.498 53.673 245.815 53.808 245.621 400.759 0.304 400.622"></polygon>
                <path d="M150.951,236.172 C149.632,240.247 147.509,243.912 144.662,246.979 L166.112,276.926 C176.953,267.582 184.741,254.817 187.691,240.247 L150.951,236.172 Z" id="Shape" fill="#A6DAE9" fill-rule="nonzero"></path>
                <path d="M129.061,198.189 C141.559,200.793 151.027,211.334 152.27,224.259 L188.958,228.306 C188.958,227.893 189.01,227.494 189.01,227.067 C189.01,192.682 162.67,164.465 129.061,161.424 L129.061,198.189 Z" id="Shape" fill="#F99B1C" fill-rule="nonzero"></path>
                <path d="M101.353,207.298 C105.438,202.773 110.844,199.485 117.084,198.19 L117.084,161.425 C97.495,163.185 80.474,173.508 69.58,188.595 L101.353,207.298 Z" id="Shape" fill="#15B0BF" fill-rule="nonzero"></path>
                <path d="M134.961,253.989 C131.313,255.619 127.302,256.551 123.058,256.551 C106.783,256.551 93.587,243.341 93.587,227.067 C93.587,223.742 94.26,220.609 95.273,217.635 L63.499,198.914 C59.464,207.464 57.108,216.976 57.108,227.066 C57.108,263.494 86.628,293.004 123.059,293.004 C134.773796,293.016031 146.275845,289.874462 156.358,283.909 L134.961,253.989 Z" id="Shape" fill="#4C8EB4" fill-rule="nonzero"></path>
                <g transform="translate(25.000000, 77.000000)" fill-rule="nonzero" id="Shape">
                    <polygon fill="#F99B1C" points="0.857 0.057 31.556 0.057 31.556 8.991 0.857 8.991"></polygon>
                    <polygon fill="#15B0BF" points="0.857 20.416 31.556 20.416 31.556 29.349 0.857 29.349"></polygon>
                    <polygon fill="#A6DAE9" points="0.857 40.774 31.556 40.774 31.556 49.706 0.857 49.706"></polygon>
                    <polygon fill="#4C8EB4" points="0.857 61.134 31.556 61.134 31.556 70.066 0.857 70.066"></polygon>
                    <path d="M52.341,0.502 L195.26,0.502 L195.26,10.554 L52.341,10.554 L52.341,0.502 Z M52.341,30.542 L195.26,30.542 L195.26,40.585 L52.341,40.585 L52.341,30.542 Z M52.341,60.582 L195.26,60.582 L195.26,70.619 L52.341,70.619 L52.341,60.582 Z M52.341,45.563 L195.26,45.563 L195.26,55.598 L52.341,55.598 L52.341,45.563 Z M52.341,15.528 L195.26,15.528 L195.26,25.563 L52.341,25.563 L52.341,15.528 Z" fill="#CCCCCC"></path>
                </g>
                <g transform="translate(25.000000, 302.000000)" fill-rule="nonzero" id="Shape">
                    <path d="M0.86,0.177 L7.356,0.177 L7.356,69.202 L0.86,69.202 L0.86,0.177 Z M0.857,69.202 L195.26,69.202 L195.26,75.698 L0.857,75.698 L0.857,69.202 Z" fill="#CCCCCC"></path>
                    <polygon fill="#15B0BF" points="24.41 38.508 41.813 38.508 41.813 69.202 24.41 69.202"></polygon>
                    <polygon fill="#A6DAE9" points="24.41 23.163 41.813 23.163 41.813 38.508 24.41 38.508"></polygon>
                    <polygon fill="#15B0BF" points="56.864 25.217 74.269 25.217 74.269 69.202 56.864 69.202"></polygon>
                    <polygon fill="#A6DAE9" points="56.864 16.42 74.269 16.42 74.269 25.217 56.864 25.217"></polygon>
                    <g transform="translate(89.000000, 30.000000)">
                        <polygon fill="#15B0BF" points="0.319 16.869 17.723 16.869 17.723 39.202 0.319 39.202"></polygon>
                        <polygon fill="#A6DAE9" points="0.319 0.835 17.723 0.835 17.723 16.869 0.319 16.869"></polygon>
                    </g>
                    <g transform="translate(121.000000, 43.000000)">
                        <polygon fill="#15B0BF" points="0.774 13.412 18.178 13.412 18.178 26.202 0.774 26.202"></polygon>
                        <polygon fill="#A6DAE9" points="0.774 0.624 18.178 0.624 18.178 13.412 0.774 13.412"></polygon>
                    </g>
                </g>
                <polygon id="Shape" fill="#000000" fill-rule="nonzero" opacity="0.1" points="245.642 356.19 174.964 356.149 175.139 53.767 245.817 53.807"></polygon>
                <g transform="translate(186.000000, 0.000000)">
                    <polygon id="Shape" fill="#EFEFEF" points="0.995 0.778 244.026 0.913 243.834 344.63 0.803 344.493"></polygon>
                    <g transform="translate(31.000000, 131.000000)" fill-rule="nonzero" id="Shape">
                        <polygon fill="#4C8EB4" points="0.494 47.453 21.482 47.465 21.447 66.559 0.455 66.546"></polygon>
                        <polygon fill="#609DC1" points="24.747 39.234 45.739 39.244 45.715 66.57 24.725 66.559"></polygon>
                        <polygon fill="#73ACCD" points="49.011 20.096 70 20.105 69.983 66.584 48.995 66.572"></polygon>
                        <polygon fill="#87BBDA" points="94.251 66.597 73.262 66.584 73.287 26.553 94.277 26.566"></polygon>
                        <polygon fill="#9ACAE6" points="97.548 46.562 118.538 46.573 118.521 66.611 97.534 66.6"></polygon>
                        <polygon fill="#73ACCD" points="142.173 66.584 121.185 66.573 121.201 38.981 142.189 38.992"></polygon>
                        <polygon fill="#87BBDA" points="166.44 66.597 145.453 66.583 145.479 26.546 166.466 26.56"></polygon>
                        <polygon fill="#9ACAE6" points="169.736 0.112 190.727 0.122 190.711 66.611 169.723 66.6"></polygon>
                    </g>
                    <path d="M114.226,231.93 L23.165,231.88 L23.168,225.83 L114.229,225.88 L114.226,231.93 Z M114.22,242.518 L23.155,242.469 L23.158,236.419 L114.223,236.467 L114.22,242.518 Z M114.213,253.107 L23.151,253.056 L23.154,247.006 L114.216,247.056 L114.213,253.107 Z M114.208,263.693 L23.146,263.643 L23.15,257.593 L114.212,257.644 L114.208,263.693 Z M114.201,274.283 L23.139,274.233 L23.143,268.182 L114.205,268.232 L114.201,274.283 Z M114.196,284.872 L23.132,284.822 L23.136,278.769 L114.2,278.82 L114.196,284.872 Z M114.19,295.463 L23.125,295.413 L23.128,289.358 L114.194,289.408 L114.19,295.463 Z M68.655,306.023 L23.123,305.998 L23.126,299.947 L68.658,299.972 L68.655,306.023 Z M221.585,231.99 L130.522,231.941 L130.525,225.891 L221.588,225.939 L221.585,231.99 Z M221.579,242.578 L130.514,242.528 L130.517,236.478 L221.582,236.528 L221.579,242.578 Z M221.573,253.167 L130.51,253.119 L130.513,247.066 L221.576,247.114 L221.573,253.167 Z M221.568,263.753 L130.505,263.702 L130.509,257.654 L221.572,257.704 L221.568,263.753 Z M221.56,274.343 L130.5,274.291 L130.503,268.242 L221.564,268.294 L221.56,274.343 Z M221.555,284.932 L130.492,284.882 L130.495,278.832 L221.558,278.882 L221.555,284.932 Z M221.55,295.52 L130.484,295.472 L130.487,289.419 L221.552,289.468 L221.55,295.52 Z M194.579,306.093 L130.481,306.058 L130.484,300.008 L194.582,300.043 L194.579,306.093 Z" id="Shape" fill="#CCCCCC"></path>
                    <polygon id="Shape" fill="#179113" fill-rule="nonzero" points="36.261 115.417 30.676 107.849 99.977 56.737 145.02 87.53 216.952 38.273 222.261 46.031 145.022 98.923 100.184 68.27"></polygon>
                    <polygon id="Shape" fill="#179113" fill-rule="nonzero" points="222.918 62.503 215.393 62.503 215.393 45.913 198.803 45.913 198.803 38.391 222.918 38.391"></polygon>
                    <circle id="Oval" fill="#064C13" fill-rule="nonzero" cx="144.423" cy="91.461" r="10.344"></circle>
                    <circle id="Oval" fill="#064C13" fill-rule="nonzero" cx="100.236" cy="62.503" r="10.343"></circle>
                </g>
            </g>
            <g id="Group" transform="translate(291.000000, 194.000000)" fill-rule="nonzero">
                <path d="M33.018,32.978 C23.267,42.729 17.883,55.679 17.852,69.429 C17.798,97.931 40.942,121.16 69.448,121.204 C83.276,121.231 96.287,115.847 106.109,106.032 C115.856,96.285 121.237,83.351 121.261,69.61 C121.287,55.821 115.919,42.838 106.156,33.043 C96.395,23.244 83.427,17.841 69.636,17.813 C55.831,17.791 42.824,23.177 33.018,32.978 Z" id="Shape" fill="#FFFFFF" opacity="0.1"></path>
                <path d="M33.018,32.978 C41.777,24.223 53.092,18.996 65.25,17.994 C62.875,18.192 60.533,18.554 58.234,19.068 C52.5290478,21.6483868 47.3399173,25.2429989 42.919,29.677 C33.169,39.427 27.789,52.371 27.763,66.126 C27.708,94.628 50.856,117.854 79.359,117.912 C83.1970171,117.91444 87.0235585,117.492883 90.769,116.655 C95.0160069,114.732999 98.9841616,112.246553 102.566,109.263 C93.257,117.019 81.672,121.227 69.449,121.203 C40.943,121.159 17.799,97.93 17.853,69.428 C17.883,55.679 23.267,42.729 33.018,32.978 Z" id="Shape" fill="#FFFFFF" opacity="0.6"></path>
                <path d="M65.34,17.985 C65.746,17.953 66.154,17.925 66.564,17.901 C66.155,17.927 65.748,17.952 65.34,17.985 Z" id="Shape" fill="#A6DAE9"></path>
                <path d="M133.171,133.671 C129.701,137.138 124.073,137.121 120.609,133.647 L109.537,122.216 C106.081,118.739 106.085,113.126 109.545,109.666 L109.572,109.65 C111.240799,107.986489 113.502508,107.05471 115.858804,107.059962 C118.2151,107.065214 120.472633,108.007066 122.134,109.678 L133.205,121.105 C136.661,124.575 136.657,130.192 133.192,133.655 C133.193,133.655 133.175,133.666 133.171,133.671 Z" id="Shape" fill="#0E303F"></path>
                <path d="M0.083,69.396 C0.011,107.692 31.12,138.913 69.42,138.981 C88.005,139.012 105.503,131.778 118.674,118.603 L118.674,118.597 C131.773,105.504 138.996,88.114 139.027,69.639 C139.064,51.109 131.857,33.654 118.746,20.496 C105.634,7.341 88.202,0.074 69.676,0.042 C51.097,0.016 33.618,7.242 20.449,20.408 C7.348,33.513 0.111,50.913 0.083,69.396 Z M17.853,69.429 C17.883,55.679 23.268,42.729 33.019,32.978 C42.825,23.177 55.831,17.791 69.638,17.813 C83.429,17.841 96.397,23.245 106.158,33.043 C115.922,42.838 121.29,55.821 121.263,69.61 C121.239,83.351 115.858,96.285 106.111,106.032 C96.289,115.846 83.278,121.231 69.45,121.204 C40.943,121.16 17.799,97.931 17.853,69.429 Z" id="Shape" fill="#2C5871"></path>
                <polygon id="Shape" fill="#103754" points="218.22 193.288 192.955 218.554 113.828 139.427 139.094 114.161"></polygon>
                <polygon id="Shape" fill="#2C5871" points="212.986 198.522 198.188 213.319 119.061 134.192 133.858 119.394"></polygon>
                <polygon id="Shape" fill="#0E303F" points="218.221 193.287 192.954 218.555 180.818 206.419 206.085 181.151"></polygon>
                <polygon id="Shape" fill="#164866" points="212.988 198.544 198.191 213.341 186.055 201.205 200.852 186.408"></polygon>
                <path d="M93.01,32.802 C80.646,26.696 66.653,25.752 53.62,30.136 C49.205277,31.6237215 45.012731,33.7033428 41.157,36.318 L44.975,46.441 C49.4836315,42.9730418 54.5361744,40.2767979 59.927,38.462 C72.962,34.072 86.948,35.014 99.313,41.119 C105.017,43.934 110.125,47.843 114.336,52.345 C109.296,44.004 101.985,37.236 93.01,32.802 Z" id="Shape" fill="#FFFFFF" opacity="0.6"></path>
            </g>
            <g id="Group" transform="translate(468.000000, 161.000000)" fill-rule="nonzero">
                <path d="M107.245,47.988 L0.745992773,47.988 L0.746,149.55 C0.743752199,150.859728 1.26593372,152.115845 2.196,153.038 C3.11999884,153.962513 4.37390532,154.481346 5.681,154.48 L102.312,154.48 C103.619864,154.480531 104.874342,153.961356 105.799329,153.036744 C106.724316,152.112132 107.244,150.857864 107.244,149.55 L107.245,47.988 Z" id="Shape" fill="#617B93"></path>
                <polygon id="Shape" fill="#FFFFFF" opacity="0.1" points="14.218 47.988 107.245 47.988 107.245 137.342"></polygon>
                <path d="M48.892,70.837 C48.8903666,71.3128794 48.5058709,71.6987133 48.03,71.702 L12.553,71.702 C12.0769984,71.6997966 11.692444,71.3130064 11.693,70.837 L11.693,59.421 C11.693,58.952 12.079,58.562 12.553,58.562 L48.03,58.562 C48.502,58.562 48.892,58.953 48.892,59.421 L48.892,70.837 Z" id="Shape" fill="#21D8DE"></path>
                <path d="M72.961,70.837 C72.961,71.313 72.571,71.702 72.096,71.702 L60.693,71.702 C60.2174559,71.6987055 59.8335377,71.3125552 59.833,70.837 L59.833,59.421 C59.833,58.952 60.221,58.562 60.693,58.562 L72.096,58.562 C72.572,58.562 72.961,58.953 72.961,59.421 L72.961,70.837 Z" id="Shape" fill="#E64717"></path>
                <path d="M97.024,70.837 C97.0251124,71.3120681 96.642058,71.6986984 96.167,71.702 L84.759,71.702 C84.2843334,71.698151 83.9018843,71.3116809 83.903,70.837 L83.903,59.421 C83.903,58.952 84.289,58.562 84.759,58.562 L96.167,58.562 C96.64,58.562 97.024,58.953 97.024,59.421 L97.024,70.837 Z M24.819,94.912 C24.819,95.382 24.437,95.766 23.963,95.766 L12.554,95.766 C12.0811432,95.7665585 11.696752,95.3848491 11.694,94.912 L11.694,83.497 C11.6945518,83.0224257 12.0794254,82.6379997 12.554,82.638 L23.963,82.638 C24.438,82.638 24.819,83.022 24.819,83.497 L24.819,94.912 Z M48.892,94.912 C48.892,95.382 48.501,95.766 48.03,95.766 L36.623,95.766 C36.1495887,95.7671125 35.7643016,95.3854011 35.761,94.912 L35.761,83.497 C35.7612648,83.2687402 35.8522633,83.0499493 36.0139486,82.8888267 C36.1756338,82.7277042 36.3947407,82.637469 36.623,82.638 L48.03,82.638 C48.502,82.638 48.892,83.022 48.892,83.497 L48.892,94.912 Z M72.961,94.912 C72.961,95.382 72.571,95.766 72.096,95.766 L60.693,95.766 C60.2203684,95.7660115 59.8362974,95.3846201 59.833,94.912 L59.833,83.497 C59.8335518,83.0224257 60.2184254,82.6379997 60.693,82.638 L72.096,82.638 C72.572,82.638 72.961,83.022 72.961,83.497 L72.961,94.912 Z M97.024,94.912 C97.024,95.382 96.639,95.766 96.167,95.766 L84.759,95.766 C84.2874779,95.764906 83.905197,95.3835183 83.903,94.912 L83.903,83.497 C83.903,83.021 84.289,82.638 84.759,82.638 L96.167,82.638 C96.64,82.638 97.024,83.022 97.024,83.497 L97.024,94.912 Z M24.819,118.977 C24.819,119.452 24.437,119.837 23.963,119.837 L12.554,119.837 C12.0790351,119.837 11.694,119.451965 11.694,118.977 L11.694,107.567 C11.6945518,107.092426 12.0794254,106.708 12.554,106.708 L23.963,106.708 C24.438,106.708 24.819,107.093 24.819,107.567 L24.819,118.977 Z M48.892,118.977 C48.892,119.452 48.501,119.837 48.03,119.837 L36.623,119.837 C36.1477105,119.837001 35.7621028,119.452288 35.761,118.977 L35.761,107.567 C35.7612648,107.33874 35.8522633,107.119949 36.0139486,106.958827 C36.1756338,106.797704 36.3947407,106.707469 36.623,106.708 L48.03,106.708 C48.502,106.708 48.892,107.093 48.892,107.567 L48.892,118.977 Z" id="Shape" fill="#F2F9FF"></path>
                <path d="M72.961,118.977 C72.961,119.452 72.571,119.837 72.096,119.837 L60.693,119.837 C60.2184914,119.8359 59.8340997,119.451509 59.833,118.977 L59.833,107.567 C59.833,107.092 60.221,106.708 60.693,106.708 L72.096,106.708 C72.572,106.708 72.961,107.093 72.961,107.567 L72.961,118.977 Z" id="Shape" fill="#20364D"></path>
                <path d="M24.819,143.046 C24.819,143.522 24.437,143.906 23.963,143.906 L12.554,143.906 C12.0790351,143.906 11.694,143.520965 11.694,143.046 L11.694,131.642 C11.694,131.167 12.08,130.777 12.554,130.777 L23.963,130.777 C24.438,130.777 24.819,131.168 24.819,131.642 L24.819,143.046 Z M48.892,143.046 C48.892,143.522 48.501,143.906 48.03,143.906 L36.623,143.906 C36.3946486,143.906265 36.1755444,143.815808 36.013888,143.654526 C35.8522316,143.493245 35.7612651,143.274351 35.761,143.046 L35.761,131.642 C35.761,131.167 36.148,130.777 36.623,130.777 L48.03,130.777 C48.502,130.777 48.892,131.168 48.892,131.642 L48.892,143.046 Z" id="Shape" fill="#F2F9FF"></path>
                <path d="M72.961,143.046 C72.961,143.522 72.571,143.906 72.096,143.906 L60.693,143.906 C60.2182636,143.905449 59.8335511,143.520736 59.833,143.046 L59.833,131.642 C59.833,131.167 60.221,130.777 60.693,130.777 L72.096,130.777 C72.572,130.777 72.961,131.168 72.961,131.642 L72.961,143.046 Z M97.024,143.046 C97.024,143.522 96.639,143.906 96.167,143.906 L84.759,143.906 C84.285598,143.903798 83.9029949,143.519407 83.903,143.046 L83.903,131.642 C83.903,131.167 84.289,130.777 84.759,130.777 L96.167,130.777 C96.64,130.777 97.024,131.168 97.024,131.642 L97.024,143.046 Z M97.024,118.977 C97.0240029,119.450796 96.6407929,119.835347 96.167,119.837 L84.759,119.837 C84.285598,119.834798 83.9029949,119.450407 83.903,118.977 L83.903,107.567 C83.903,107.092 84.289,106.708 84.759,106.708 L96.167,106.708 C96.64,106.708 97.024,107.093 97.024,107.567 L97.024,118.977 Z" id="Shape" fill="#20364D"></path>
                <path d="M107.245,5.521 C107.24445,2.79671207 105.037287,0.587758996 102.313,0.585 L5.682,0.585 C4.37403398,0.582231803 3.11924865,1.10250865 2.197,2.03 C1.26628747,2.95295006 0.74406137,4.21025442 0.747,5.521 L0.746987665,47.988 L107.246,47.988 L107.246,5.521 L107.245,5.521 Z" id="Shape" fill="#365772"></path>
                <path d="M12.553,39.469 C11.778,39.469 11.043,39.168 10.494,38.616 C9.9456602,38.0721591 9.63807632,37.3312925 9.64,36.559 L9.64,12.021 C9.64,11.245 9.945,10.512 10.494,9.965 C11.0396537,9.4181427 11.7804776,9.1108753 12.553,9.111 L96.166,9.111 C96.949,9.111 97.686,9.418 98.232,9.971 C98.774,10.512 99.08,11.245 99.08,12.021 L99.08,36.559 C99.0807414,37.3308612 98.7737479,38.0711726 98.227,38.616 C97.681457,39.1647352 96.9387692,39.4719673 96.165,39.469 L12.553,39.469 Z" id="Shape" fill="#2F4F6B"></path>
                <path d="M12.553,11.162 C12.3247509,11.1614673 12.1056969,11.2519031 11.9443,11.4133 C11.7829031,11.5746969 11.6924673,11.7937509 11.693,12.022 L11.693,36.56 C11.6946459,37.0342815 12.0787185,37.4183541 12.553,37.42 L96.166,37.42 C96.3945098,37.419721 96.6135587,37.3287205 96.775,37.167 C96.9330418,37.0043439 97.0219277,36.7867886 97.023,36.56 L97.023,12.022 C97.022712,11.7947613 96.9337298,11.5766112 96.775,11.414 C96.6133331,11.2527391 96.3943446,11.1621232 96.166,11.162 L12.553,11.162 Z" id="Shape" fill="#FEC00F"></path>
                <polygon id="Shape" fill="#2F4F6B" points="0.746 45.938 107.245 45.938 107.245 47.989 0.746 47.989"></polygon>
            </g>
        </g>
    </g>
</svg>